<?xml version="1.0" encoding="UTF-8" standalone="no"?>
<!-- Created with Inkscape (http://www.inkscape.org/) -->
<svg
   xmlns:dc="http://purl.org/dc/elements/1.1/"
   xmlns:cc="http://creativecommons.org/ns#"
   xmlns:rdf="http://www.w3.org/1999/02/22-rdf-syntax-ns#"
   xmlns:svg="http://www.w3.org/2000/svg"
   xmlns="http://www.w3.org/2000/svg"
   xmlns:xlink="http://www.w3.org/1999/xlink"
   xmlns:sodipodi="http://sodipodi.sourceforge.net/DTD/sodipodi-0.dtd"
   xmlns:inkscape="http://www.inkscape.org/namespaces/inkscape"
   width="744.09448819"
   height="1052.3622047"
   id="svg2"
   sodipodi:version="0.32"
   inkscape:version="0.46"
   sodipodi:docname="splash_avarak.svg"
   inkscape:output_extension="org.inkscape.output.svg.inkscape">
  <defs
     id="defs4">
    <inkscape:perspective
       id="perspective3297"
       inkscape:persp3d-origin="-39.399944 : 626.23759 : 1"
       inkscape:vp_z="602.32507 : 712.65162 : 1"
       inkscape:vp_y="1.0421652e-13 : 952.28174 : 0"
       inkscape:vp_x="-672.63967 : 793.2618 : 1"
       sodipodi:type="inkscape:persp3d" />
    <linearGradient
       inkscape:collect="always"
       id="linearGradient3254">
      <stop
         style="stop-color:#8dd35f;stop-opacity:0.47706422"
         offset="0"
         id="stop3256" />
      <stop
         style="stop-color:#338000;stop-opacity:0;"
         offset="1"
         id="stop3258" />
    </linearGradient>
    <linearGradient
       inkscape:collect="always"
       id="linearGradient2398">
      <stop
         style="stop-color:#22280b;stop-opacity:1;"
         offset="0"
         id="stop2400" />
      <stop
         style="stop-color:#22280b;stop-opacity:0;"
         offset="1"
         id="stop2402" />
    </linearGradient>
    <linearGradient
       inkscape:collect="always"
       id="linearGradient2388">
      <stop
         style="stop-color:#eef4d7;stop-opacity:1;"
         offset="0"
         id="stop2390" />
      <stop
         style="stop-color:#eef4d7;stop-opacity:0;"
         offset="1"
         id="stop2392" />
    </linearGradient>
    <inkscape:perspective
       sodipodi:type="inkscape:persp3d"
       inkscape:vp_x="-672.63967 : 733.2618 : 1"
       inkscape:vp_y="1.0421652e-13 : 952.28174 : 0"
       inkscape:vp_z="593.83979 : 733.2618 : 1"
       inkscape:persp3d-origin="-39.399944 : 566.23759 : 1"
       id="perspective10" />
    <linearGradient
       inkscape:collect="always"
       xlink:href="#linearGradient2388"
       id="linearGradient2394"
       x1="248.49753"
       y1="15.945671"
       x2="248.49753"
       y2="234.13863"
       gradientUnits="userSpaceOnUse" />
    <linearGradient
       inkscape:collect="always"
       xlink:href="#linearGradient2398"
       id="linearGradient2404"
       x1="253.72395"
       y1="325.48529"
       x2="253.72395"
       y2="137.26428"
       gradientUnits="userSpaceOnUse" />
    <filter
       inkscape:collect="always"
       id="filter3200"
       x="-0.10297461"
       width="1.2059492"
       y="-0.17526841"
       height="1.3505368">
      <feGaussianBlur
         inkscape:collect="always"
         stdDeviation="19.720469"
         id="feGaussianBlur3202" />
    </filter>
    <linearGradient
       inkscape:collect="always"
       xlink:href="#linearGradient3254"
       id="linearGradient3260"
       x1="378"
       y1="202.36218"
       x2="609"
       y2="426.36218"
       gradientUnits="userSpaceOnUse" />
  </defs>
  <sodipodi:namedview
     id="base"
     pagecolor="#ffffff"
     bordercolor="#666666"
     borderopacity="1.0"
     gridtolerance="10000"
     guidetolerance="10"
     objecttolerance="10"
     inkscape:pageopacity="0.0"
     inkscape:pageshadow="2"
     inkscape:zoom="1"
     inkscape:cx="337.21877"
     inkscape:cy="871.8774"
     inkscape:document-units="px"
     inkscape:current-layer="layer1"
     showgrid="false"
     inkscape:window-width="1340"
     inkscape:window-height="723"
     inkscape:window-x="79"
     inkscape:window-y="93" />
  <metadata
     id="metadata7">
    <rdf:RDF>
      <cc:Work
         rdf:about="">
        <dc:format>image/svg+xml</dc:format>
        <dc:type
           rdf:resource="http://purl.org/dc/dcmitype/StillImage" />
      </cc:Work>
    </rdf:RDF>
  </metadata>
  <g
     inkscape:label="Layer 1"
     inkscape:groupmode="layer"
     id="layer1">
    <rect
       style="opacity:1;fill:#338000;fill-opacity:1;fill-rule:evenodd;stroke:none;stroke-width:1;stroke-linecap:butt;stroke-linejoin:miter;marker:none;marker-start:none;marker-mid:none;marker-end:none;stroke-miterlimit:4;stroke-dasharray:none;stroke-dashoffset:0;stroke-opacity:1;visibility:visible;display:inline;overflow:visible;enable-background:accumulate"
       id="rect2383"
       width="502.04581"
       height="294.96454"
       x="18.182745"
       y="14.935518"
       inkscape:export-filename="/home/defo/Documentos/Universidad/Picnet/src/dsem/pyscada/res/splash/splash.png"
       inkscape:export-xdpi="92.146667"
       inkscape:export-ydpi="92.146667" />
    <path
       style="fill:url(#linearGradient2394);fill-opacity:1;fill-rule:evenodd;stroke:none;stroke-width:1;stroke-linecap:butt;stroke-linejoin:miter;stroke-miterlimit:4;stroke-dashoffset:0;stroke-opacity:1;marker:none;marker-start:none;marker-mid:none;marker-end:none;visibility:visible;display:inline;overflow:visible;enable-background:accumulate"
       d="M 18.182745,14.935518 L 520.22855,14.935518 L 520.22855,149.90006 L 486.89352,155.96098 C 359.46453,179.12991 146.54219,123.57967 18.182745,149.90006 L 18.182745,14.935518 z"
       id="rect2385"
       sodipodi:nodetypes="cccscc" />
    <path
       style="fill:url(#linearGradient3260);fill-opacity:1;fill-rule:evenodd;stroke:none;stroke-width:1;stroke-linecap:butt;stroke-linejoin:miter;stroke-miterlimit:4;stroke-dashoffset:0;stroke-opacity:1;marker:none;marker-start:none;marker-mid:none;marker-end:none;visibility:visible;display:inline;overflow:visible;enable-background:accumulate"
       d="M 520.22855,14.935518 L 520.22855,309.90006 L 18.182745,309.90006 C 348.17283,307.49028 541.28246,200.63554 520.22855,14.935518 z"
       id="rect3251"
       sodipodi:nodetypes="cccc" />
    <rect
       y="27.398809"
       x="39.39595"
       height="270.03796"
       width="459.61938"
       id="rect2396"
       style="opacity:1;fill:url(#linearGradient2404);fill-opacity:1;fill-rule:evenodd;stroke:none;stroke-width:1;stroke-linecap:butt;stroke-linejoin:miter;marker:none;marker-start:none;marker-mid:none;marker-end:none;stroke-miterlimit:4;stroke-dasharray:none;stroke-dashoffset:0;stroke-opacity:1;visibility:visible;display:inline;overflow:visible;filter:url(#filter3200);enable-background:accumulate"
       transform="matrix(1.0615385,0,0,1.0125786,-16.566502,33.977314)" />
    <path
       id="path3224"
       style="fill:#ccffaa;fill-rule:evenodd;stroke:#b3ff80;stroke-width:1px;stroke-linecap:butt;stroke-linejoin:miter;stroke-opacity:1"
       d="M -13.131983,272.69354 C -13.131983,272.49552 -13.131983,272.2975 -13.131983,272.69354 z M 535.38085,274.47571 L -2.0203051,274.47571 M 1.0101525,266.15891 L 535.38085,266.15891 M 535.38085,292.1183 L -2.0203051,292.1183 M 1.0101525,283.8015 L 535.38085,283.8015" />
    <text
       xml:space="preserve"
       style="font-size:40px;font-style:normal;font-weight:normal;fill:#000000;fill-opacity:1;stroke:none;stroke-width:1px;stroke-linecap:butt;stroke-linejoin:miter;stroke-opacity:1;font-family:Bitstream Vera Sans"
       x="56"
       y="237.36218"
       id="text3233"><tspan
         sodipodi:role="line"
         id="tspan3235"
         x="56"
         y="237.36218" /></text>
    <text
       xml:space="preserve"
       style="font-size:20.34313202px;font-style:normal;font-variant:normal;font-weight:normal;font-stretch:normal;text-align:end;line-height:125%;writing-mode:lr-tb;text-anchor:end;fill:#e2e3db;fill-opacity:1;stroke:none;stroke-width:1px;stroke-linecap:butt;stroke-linejoin:miter;stroke-opacity:1;font-family:Calibri;-inkscape-font-specification:Calibri"
       x="207.95276"
       y="227.10857"
       id="text3237"
       sodipodi:linespacing="125%"><tspan
         sodipodi:role="line"
         id="tspan3239"
         x="207.95276"
         y="227.10857">Avarak</tspan><tspan
         sodipodi:role="line"
         x="207.95276"
         y="252.53748"
         id="tspan3241">HMI Semafroización</tspan></text>
    <text
       sodipodi:linespacing="125%"
       id="text3243"
       y="262.25751"
       x="498.13171"
       style="font-size:11.06566906px;font-style:normal;font-variant:normal;font-weight:normal;font-stretch:normal;text-align:end;line-height:125%;writing-mode:lr-tb;text-anchor:end;fill:#e2e3db;fill-opacity:1;stroke:none;stroke-width:1px;stroke-linecap:butt;stroke-linejoin:miter;stroke-opacity:1;font-family:Calibri;-inkscape-font-specification:Calibri"
       xml:space="preserve"><tspan
         id="tspan3247"
         y="262.25751"
         x="498.13171"
         sodipodi:role="line">Basado en motor de adquisición de datos Alsvid</tspan></text>
    <path
       style="opacity:0.47706424;fill:#8dd35f;fill-opacity:1;fill-rule:evenodd;stroke:#b3ff80;stroke-width:1;stroke-linecap:butt;stroke-linejoin:miter;marker:none;marker-start:none;marker-mid:none;marker-end:none;stroke-miterlimit:4;stroke-dasharray:none;stroke-dashoffset:0;stroke-opacity:1;visibility:visible;display:inline;overflow:visible;enable-background:accumulate"
       d="M 225.53125,215.5 C 221.76986,215.68945 218.8125,218.81491 218.8125,222.625 L 218.8125,248.875 C 218.8125,252.80799 221.97326,255.96875 225.90625,255.96875 L 252.1875,255.96875 C 256.12048,255.96874 259.28125,252.80799 259.28125,248.875 L 259.28125,222.625 C 259.28126,218.69201 256.12049,215.5 252.1875,215.5 L 225.90625,215.5 C 225.78334,215.50001 225.65259,215.49389 225.53125,215.5 z M 238.34375,217.8125 C 248.33667,217.81249 256.4375,225.94457 256.4375,235.9375 C 256.43752,245.93044 248.33667,254.03125 238.34375,254.03125 C 228.35082,254.03124 220.21875,245.93043 220.21875,235.9375 C 220.21875,225.94458 228.35082,217.8125 238.34375,217.8125 z M 238.34375,220.125 C 229.62444,220.125 222.53125,227.18693 222.53125,235.90625 C 222.53125,244.62558 229.62444,251.71876 238.34375,251.71875 C 247.06307,251.71875 254.125,244.62558 254.125,235.90625 C 254.125,227.18693 247.06307,220.125 238.34375,220.125 z M 239.4375,222.65625 C 243.16901,222.65626 246.15088,223.89777 248.09375,226.40625 C 249.87037,228.69761 250.65623,232.07678 250.65625,236.5 C 250.65622,239.84794 249.68295,242.99912 247.75,245.875 C 247.60278,246.09243 247.35632,246.22153 247.09375,246.21875 L 244.5625,246.21875 C 244.26701,246.21781 244.00714,246.04555 243.875,245.78125 C 243.74285,245.51696 243.76096,245.20571 243.9375,244.96875 C 245.78964,242.60367 246.71873,239.80547 246.71875,236.5 C 246.71873,233.73195 246.42815,232.03549 246.125,231.0625 C 245.77048,231.30645 245.45629,231.49333 245.0625,231.8125 C 244.9768,231.88213 244.62499,232.66661 244.625,234.15625 L 244.625,240.625 C 244.62431,241.05619 244.27494,241.40556 243.84375,241.40625 L 241.53125,241.40625 C 241.31287,241.40657 241.11712,241.31648 240.96875,241.15625 C 240.82038,240.99601 240.73291,240.78021 240.75,240.5625 C 240.75035,240.55677 240.77533,239.91064 240.78125,238.84375 C 240.78717,237.77686 240.78125,236.22321 240.78125,234.21875 C 240.78124,232.1719 241.5776,230.40332 243.125,229.1875 L 244.4375,228.1875 C 243.1044,226.85095 241.54168,226.06251 239.4375,226.0625 C 239.30222,226.06251 239.07949,226.10276 238.90625,226.125 L 238.90625,232.59375 C 238.90556,233.02494 238.55619,233.37431 238.125,233.375 L 236.21875,233.375 C 235.78756,233.37431 235.43819,233.02494 235.4375,232.59375 L 235.4375,227.1875 C 234.52852,227.61365 233.76461,228.0745 233.28125,228.5625 C 233.05711,228.79338 232.70308,228.87424 232.40625,228.75 C 232.10943,228.62575 231.93033,228.3217 231.9375,228 L 231.9375,225.78125 C 231.93227,225.57204 232.01105,225.36946 232.15625,225.21875 C 233.89578,223.48758 236.38689,222.65626 239.4375,222.65625 z"
       id="rect3262" />
    <text
       xml:space="preserve"
       style="font-size:23.0899086px;font-style:normal;font-weight:normal;fill:#000000;fill-opacity:1;stroke:none;stroke-width:1px;stroke-linecap:butt;stroke-linejoin:miter;stroke-opacity:1;font-family:Bitstream Vera Sans"
       x="231.25366"
       y="389.43832"
       id="text3315"><tspan
         sodipodi:role="line"
         id="tspan3317"
         x="231.25366"
         y="389.43832" /></text>
  </g>
</svg>
