<?xml version="1.0" encoding="UTF-8" standalone="no"?>
<!-- Created with Inkscape (http://www.inkscape.org/) -->

<svg
   xmlns:dc="http://purl.org/dc/elements/1.1/"
   xmlns:cc="http://creativecommons.org/ns#"
   xmlns:rdf="http://www.w3.org/1999/02/22-rdf-syntax-ns#"
   xmlns:svg="http://www.w3.org/2000/svg"
   xmlns="http://www.w3.org/2000/svg"
   xmlns:sodipodi="http://sodipodi.sourceforge.net/DTD/sodipodi-0.dtd"
   xmlns:inkscape="http://www.inkscape.org/namespaces/inkscape"
   width="378.18216"
   height="365.56177"
   id="svg2"
   version="1.1"
   inkscape:version="0.48.4 r9939"
   sodipodi:docname="Documento nuevo 1">
  <defs
     id="defs4" />
  <sodipodi:namedview
     id="base"
     pagecolor="#ffffff"
     bordercolor="#666666"
     borderopacity="1.0"
     inkscape:pageopacity="0.0"
     inkscape:pageshadow="2"
     inkscape:zoom="0.49497475"
     inkscape:cx="633.47716"
     inkscape:cy="183.33745"
     inkscape:document-units="px"
     inkscape:current-layer="layer1"
     showgrid="false"
     fit-margin-top="0"
     fit-margin-left="0"
     fit-margin-right="0"
     fit-margin-bottom="0"
     inkscape:window-width="1366"
     inkscape:window-height="699"
     inkscape:window-x="0"
     inkscape:window-y="0"
     inkscape:window-maximized="1" />
  <metadata
     id="metadata7">
    <rdf:RDF>
      <cc:Work
         rdf:about="">
        <dc:format>image/svg+xml</dc:format>
        <dc:type
           rdf:resource="http://purl.org/dc/dcmitype/StillImage" />
        <dc:title></dc:title>
      </cc:Work>
    </rdf:RDF>
  </metadata>
  <g
     inkscape:label="Capa 1"
     inkscape:groupmode="layer"
     id="layer1"
     transform="translate(-223.77646,-290.25288)">
    <path
       inkscape:connector-curvature="0"
       id="path2998"
       d="m 491.95862,655.22333 c -3.51775,-0.39793 -6,-2.48407 -6,-5.04251 0,-0.88883 0.66167,-1.16625 1.86824,-0.7833 2.20903,0.70112 5.73366,-3.86432 5.26422,-6.81871 -0.4941,-3.10958 2.25513,-1.28634 2.91819,1.9353 0.72253,3.51058 2.72175,7.42523 3.79209,7.42523 0.4248,0 1.5638,-1.79383 2.53111,-3.9863 1.60591,-3.63986 1.62263,-4.18063 0.19245,-6.2225 -1.28337,-1.83227 -1.5663,-1.92507 -1.5663,-0.51371 0,1.05584 -0.77407,1.72251 -2,1.72251 -1.47268,0 -2,-0.66667 -2,-2.52852 0,-4.0595 -5.7045,-14.47148 -7.92862,-14.47148 -1.79699,0 -8.07138,-8.59002 -8.07138,-11.05021 0,-2.04848 -3.27747,-5.94979 -4.99838,-5.94979 -2.85981,0 -3.35051,-4.19389 -0.72967,-6.23639 2.1808,-1.69956 2.30423,-1.64845 5.82005,2.41016 3.7852,4.36956 6.37045,3.95515 2.89437,-0.46396 -1.0925,-1.3889 -1.98637,-2.7625 -1.98637,-3.05244 0,-0.28994 -0.48362,-1.79397 -1.0747,-3.34227 -1.05107,-2.75319 -1.10742,-2.77111 -2.56183,-0.8151 -1.36134,1.83084 -1.59042,1.86092 -2.70828,0.35566 -0.67164,-0.90439 -2.30407,-4.94754 -3.62763,-8.98478 -1.32357,-4.03724 -3.45763,-8.88939 -4.74237,-10.78255 -1.28473,-1.89317 -2.59826,-4.48752 -2.91894,-5.76523 -0.32069,-1.2777 -1.21656,-2.3231 -1.99084,-2.3231 -1.40907,0 -2.54792,-2.14332 -6.11047,-11.5 -1.37898,-3.62175 -2.50483,-5.08808 -4.08434,-5.31955 -2.15395,-0.31565 -2.66454,-1.60984 -2.31005,-5.85532 0.0999,-1.19618 -0.28014,-2.46024 -0.84448,-2.80902 -1.42942,-0.88343 -1.28411,-2.51611 0.22393,-2.51611 0.6875,0 1.25,-1.125 1.25,-2.5 0,-3.0158 -1.54811,-3.20931 -4,-0.5 -0.99549,1.1 -2.15991,2 -2.5876,2 -1.69691,0 -2.01578,-4.19328 -0.49533,-6.51378 1.84592,-2.81722 2.11448,-9.14237 0.41227,-9.70977 -1.15143,-0.38381 -0.34596,-5.18119 1.70279,-10.14185 0.64387,-1.559 0.42925,-1.75712 -1.30664,-1.20617 -1.39287,0.44208 -2.37681,0.1236 -2.98706,-0.96687 -0.59123,-1.05646 -1.90387,-1.5097 -3.7471,-1.29383 -2.34954,0.27517 -3.08323,1.07388 -4.26938,4.64776 -1.3399,4.03716 -1.26674,4.83034 1.13424,12.29772 1.41159,4.39023 3.95844,10.04465 5.65967,12.56539 2.97298,4.40513 3.00361,4.55513 0.78864,3.86141 -1.26748,-0.39697 -5.17159,-1.15697 -8.67581,-1.68889 -5.9371,-0.90121 -6.75082,-0.78144 -11.94022,1.7575 -3.0629,1.49853 -9.24858,5.53219 -13.74595,8.96367 -4.49737,3.43148 -9.69926,7.02225 -11.55977,7.97948 -1.86051,0.95722 -7.65775,4.45693 -12.88275,7.77712 -5.225,3.32018 -13.325,7.7005 -18,9.73403 -17.4986,7.61155 -20.57123,9.22825 -32.88627,17.30349 -13.6957,8.98058 -14.6144,9.79592 -15.63941,13.87987 -0.50448,2.01003 -0.27121,2.89443 0.87996,3.33617 1.7247,0.66183 26.95393,-1.96736 35.60113,-3.71008 8.04555,-1.62145 14.9927,-0.43188 23.84623,4.08325 11.58351,5.90736 13.35977,7.66878 13.95234,13.83578 0.57312,5.96457 0.8548,5.74614 -9.25398,7.17587 -8.67065,1.22632 -38.47003,-0.72559 -39.17631,-2.56612 -0.50136,-1.30654 4.27113,-6.51865 6.23241,-6.8065 0.68317,-0.10027 1.99749,-0.8092 2.92069,-1.57539 1.44198,-1.19674 2.3171,-1.15642 6.20901,0.28602 5.35096,1.98321 6.64605,1.51716 5.11598,-1.84099 -0.76893,-1.68761 -1.93895,-2.46894 -3.7123,-2.47903 -1.42421,-0.008 -3.71448,-0.67107 -5.08948,-1.47325 -7.7852,-4.5419 -9.19166,-4.84956 -14.5,-3.17181 -2.75,0.86916 -7.7,1.86144 -11,2.20507 -3.3,0.34362 -9.06692,1.26152 -12.81538,2.03975 -3.74845,0.77824 -9.8688,1.41498 -13.60077,1.41498 -10.90967,0 -17.08385,2.90207 -17.08385,8.02999 0,2.22223 0.54902,2.82981 3,3.32001 1.75956,0.35191 3,1.23056 3,2.125 0,1.30103 -2.27484,1.525 -15.48927,1.525 -12.92635,0 -16.33694,-0.32209 -20.61222,-1.94656 -9.99226,-3.79676 -11.85007,-7.73705 -3.39987,-7.21089 3.02575,0.1884 5.50136,0.7509 5.50136,1.25 0,1.54411 2.60784,1.00376 5.27287,-1.09255 2.72441,-2.14302 4.88551,-2.75838 2.97393,-0.8468 -0.74787,0.74787 -0.83271,1.75201 -0.24139,2.85691 0.87951,1.64337 1.72933,1.73455 10.5303,1.12978 1.14458,-0.0786 2.10915,-0.90596 2.20347,-1.88989 0.0923,-0.9625 0.47095,-4.1125 0.84152,-7 0.64618,-5.03509 0.57756,-5.25 -1.6762,-5.25 -1.49549,0 -3.74661,1.54536 -6.19097,4.25 l -3.841,4.25 0.52044,-5.28226 c 0.55418,-5.62471 0.2048,-5.80283 -3.99288,-2.03566 -2.9375,2.63623 -4.40133,0.60064 -4.53239,-6.30272 -0.0562,-2.95865 -0.55415,-5.94145 -1.10661,-6.62846 -1.40386,-1.74573 1.00225,-7.2509 3.1691,-7.2509 3.00708,0 5.39242,-2.59281 5.6187,-6.1074 0.12014,-1.86593 0.68958,-4.85584 1.26544,-6.64425 1.00352,-3.11659 0.94871,-3.22698 -1.3194,-2.65772 -2.11972,0.53201 -2.3572,0.2701 -2.27809,-2.51244 0.12763,-4.48896 -1.03899,-4.98252 -3.90531,-1.65222 -2.10625,2.4472 -2.81747,2.73916 -4.34648,1.78428 -1.44591,-0.90299 -2.26873,-0.78298 -3.93542,0.57403 -1.61609,1.31579 -2.28607,3.39898 -2.87426,8.93704 -0.4354,4.09948 -0.37289,7.9255 0.14459,8.8502 1.09054,1.94867 -0.0987,14.67016 -1.33053,14.23332 -0.4728,-0.16766 -3.40076,-3.22984 -6.50658,-6.80484 -8.84944,-10.18627 -10.91579,-15.11159 -16.3363,-38.93898 -1.14986,-5.05454 1.12191,-26.36704 3.3642,-31.56102 0.71232,-1.65 1.56523,-3.81631 1.89537,-4.81401 0.39318,-1.18826 1.37875,-1.7057 2.85706,-1.5 1.58912,0.22111 2.1526,-0.12978 1.90455,-1.18599 -1.12198,-4.77743 -0.38548,-10.85737 1.66384,-13.73537 1.20364,-1.69036 2.18843,-3.72166 2.18843,-4.51401 0,-0.79236 0.9,-2.25513 2,-3.25062 1.1,-0.99549 2,-2.41774 2,-3.16057 0,-2.6259 21.64637,-22.97159 26.08718,-24.51966 1.63547,-0.57013 3.62998,-2.30593 4.43224,-3.85732 0.80225,-1.55139 2.41621,-3.12463 3.58658,-3.49609 1.17036,-0.37146 4.0584,-2.69014 6.41788,-5.15262 3.13363,-3.27044 4.9215,-4.38755 6.63303,-4.14451 2.22435,0.31587 5.84309,-2.70261 5.84309,-4.87387 0,-0.48905 1.2375,-1.89415 2.75,-3.12243 10.41126,-8.4549 13.2134,-9.80923 13.28914,-6.42293 0.0224,0.99947 0.65171,0.34011 1.46747,-1.53743 0.85737,-1.97332 2.74048,-3.88888 4.71086,-4.79203 1.80539,-0.82752 4.64939,-2.37124 6.31999,-3.43049 1.6706,-1.05924 4.5956,-2.0277 6.5,-2.15214 3.46755,-0.22657 6.7165,-1.74321 10.46254,-4.884 1.1,-0.92228 3.5706,-2.20347 5.49022,-2.84711 2.9158,-0.97765 3.67455,-0.91815 4.61024,0.36148 0.61602,0.84245 1.68802,1.53172 2.38223,1.53172 0.99684,0 0.98718,-0.33138 -0.0459,-1.57622 -1.08415,-1.30631 -1.06231,-1.73048 0.12755,-2.47717 0.78964,-0.49552 2.18691,-0.66742 3.10505,-0.38199 1.08453,0.33715 1.89637,-0.19633 2.31739,-1.52283 0.38376,-1.20913 1.51184,-2.04179 2.7662,-2.04179 1.16499,0 3.17872,-0.99634 4.47496,-2.2141 2.00731,-1.88577 2.65313,-2.02904 4.35513,-0.96612 2.49303,1.55692 3.88844,0.78713 3.21832,-1.77543 -0.38133,-1.45819 0.11787,-2.11146 1.96841,-2.57592 1.36362,-0.34225 2.95026,-1.65591 3.52588,-2.91926 1.27342,-2.79485 7.12433,-4.19755 10.33698,-2.47819 1.76147,0.94271 2.3275,0.85822 3.06371,-0.45732 0.51157,-0.91412 2.1774,-1.61366 3.84263,-1.61366 1.61677,0 5.25896,-0.88129 8.09374,-1.95842 3.64034,-1.38323 5.68013,-1.67693 6.94499,-1 2.55704,1.36849 2.75374,1.26 3.10589,-1.71298 0.36245,-3.06004 2.83292,-4.67389 15.90364,-10.38918 7.22,-3.157 18.37431,-5.86369 21.16278,-5.13532 0.4125,0.10774 0.75,-0.2541 0.75,-0.8041 0,-0.55 0.68614,-1 1.52475,-1 0.83861,0 1.92555,-1.0125 2.41543,-2.25 0.48987,-1.2375 3.0012,-3.825 5.58074,-5.75 2.57954,-1.925 7.80342,-6.33939 11.60862,-9.80976 7.00668,-6.39013 7.22699,-6.46934 12.49708,-4.49337 1.70852,0.64059 2.58448,-4.38598 1.16143,-6.66465 -1.09996,-1.76131 -0.75446,-2.49074 2.98398,-6.29993 2.32538,-2.3694 4.24228,-4.96596 4.25977,-5.77014 0.0492,-2.26354 2.78792,1.78458 4.05356,5.99166 2.23039,7.41398 2.68375,10.07085 1.81053,10.61053 -1.58231,0.9779 -0.95681,2.43566 1.04505,2.43566 2.98407,0 3.52951,1.97395 1.19149,4.31198 -1.53907,1.53906 -2.409,1.81149 -3.214,1.00649 -0.80499,-0.80499 -1.79255,-0.74639 -3.64856,0.21652 -2.33861,1.21329 -8.26991,6.98226 -8.26991,8.04358 0,0.25032 2.75209,0.17878 6.11575,-0.15897 4.74647,-0.4766 6.01968,-0.32589 5.68667,0.67314 -0.24247,0.72742 -2.26523,1.3816 -4.65122,1.50424 -2.32218,0.11936 -4.85959,0.74604 -5.63869,1.39263 -0.77909,0.6466 -2.30026,0.89514 -3.38037,0.55233 -1.11003,-0.35231 -2.29477,-0.0878 -2.72503,0.60837 -0.42288,0.68422 -0.23805,1.40604 0.41584,1.62401 1.67676,0.55892 1.45763,3.18078 -0.32295,3.86405 -0.825,0.31659 -1.5,1.19132 -1.5,1.94387 0,1.05559 -0.58626,1.14536 -2.56547,0.39287 -1.70396,-0.64784 -3.21512,-0.62772 -4.5,0.0599 -2.05384,1.09918 -2.62634,2.96496 -0.90978,2.96496 0.56361,0 1.44238,1.09844 1.95281,2.44097 1.35296,3.55856 -1.32632,8.55903 -4.58599,8.55903 -2.12638,0 -2.32048,-0.26432 -1.42405,-1.93931 0.6902,-1.28965 0.70199,-2.14691 0.0352,-2.55902 -1.42486,-0.88061 -2.78907,0.18454 -4.5177,3.52733 -1.0533,2.03687 -2.0202,2.73523 -3.24289,2.34226 -1.41039,-0.45331 -1.46808,-0.36566 -0.30296,0.46033 1.95857,1.38852 3.16652,12.16844 1.36352,12.16844 -0.71648,0 -1.30269,0.45 -1.30269,1 0,1.34153 -3.32409,1.27591 -4.69264,-0.0926 -0.79019,-0.79019 -1.68643,-0.77485 -3.23777,0.0554 -1.17983,0.63142 -3.08432,0.84995 -4.23221,0.48563 -2.54786,-0.80866 -3.98131,1.12997 -3.1841,4.30629 0.53969,2.15033 -1.0227,5.24532 -2.64792,5.24532 -0.41236,0 -1.04665,-1.85672 -1.40953,-4.12605 -0.64439,-4.02982 -0.70568,-4.08451 -2.6278,-2.34501 -1.89953,1.719 -1.96803,1.70598 -1.96803,-0.37399 0,-2.4994 -2.18523,-2.84165 -4.02094,-0.62976 -1.12985,1.36139 -1.46592,1.34414 -3.12857,-0.16054 -2.07059,-1.87386 -3.41817,-1.28641 -2.50541,1.09218 0.32568,0.84872 1.70472,1.54313 3.06452,1.54313 3.51553,0 4.13018,1.73315 1.41668,3.99467 -2.96416,2.47042 -3.82628,2.48436 -3.82628,0.0619 0,-1.09893 -1.30366,-2.71356 -3,-3.71561 -1.65,-0.97468 -3,-2.20012 -3,-2.7232 0,-0.52309 -0.23559,-0.71547 -0.52354,-0.42752 -0.94816,0.94815 0.70721,3.80979 2.20385,3.80979 0.85454,0 1.32665,0.72535 1.13153,1.73852 -0.43065,2.23618 -3.81184,2.97667 -3.81184,0.83477 0,-0.86532 -0.45,-1.57332 -1,-1.57332 -0.55,0 -1,0.4132 -1,0.91821 0,0.50502 -0.26353,1.60495 -0.58561,2.4443 -0.39581,1.03144 0.009,1.51577 1.25,1.49424 1.00958,-0.0175 3.81726,0.70416 6.23928,1.60372 2.42202,0.89957 5.00952,1.40309 5.75,1.11894 0.84305,-0.32351 1.34633,0.20787 1.34633,1.42152 0,1.57344 -0.65863,1.91341 -3.5,1.80659 -1.925,-0.0724 -3.5,-0.63552 -3.5,-1.25144 0,-0.61593 -1.07492,-1.20883 -2.38871,-1.31756 -1.67445,-0.13858 -2.55136,0.42431 -2.93269,1.88251 -0.58459,2.23547 -2.6786,1.70384 -2.6786,-0.68005 0,-0.79254 -0.675,-1.44098 -1.5,-1.44098 -0.825,0 -1.5,0.45 -1.5,1 0,1.34542 -3.3258,1.2742 -4.70066,-0.10066 -0.80089,-0.80089 -1.28587,-0.51714 -1.78065,1.04179 -0.48324,1.52254 -1.21725,1.97193 -2.53679,1.55312 -1.77612,-0.56371 -5.9819,1.28516 -5.9819,2.62967 0,1.36748 3.98543,1.59856 5.06824,0.29386 0.81233,-0.9788 1.66493,-1.09577 2.9549,-0.40539 0.99723,0.53369 3.1454,0.7039 4.77372,0.37824 3.37665,-0.67533 5.0069,0.93598 3.17735,3.14044 -0.65888,0.7939 -0.94614,2.09969 -0.63836,2.90175 0.4745,1.23653 1.1378,1.16737 4.36187,-0.4548 2.09126,-1.0522 5.03153,-2.15921 6.53394,-2.46001 1.50241,-0.3008 4.26182,-1.89041 6.13202,-3.53246 3.96996,-3.48567 4.75589,-3.6159 6.98133,-1.15681 1.98592,2.19442 2.14447,5.53312 0.34904,7.34983 -0.71828,0.72679 -1.6116,2.12834 -1.98517,3.11455 -0.54103,1.42835 -1.07474,1.58145 -2.62349,0.75258 -1.5931,-0.8526 -2.31827,-0.56509 -4.01484,1.59173 -2.21543,2.81647 -2.6315,4.89785 -1.16079,5.8068 1.56367,0.9664 4.09024,-0.57304 4.09024,-2.4922 0,-2.45471 1.85651,-3.48954 2.63249,-1.46737 0.36541,0.95224 -0.0983,2.1355 -1.13368,2.89255 -1.37735,1.00714 -1.52602,1.70343 -0.6952,3.25584 0.58126,1.08609 0.74194,2.48423 0.35707,3.10697 -0.38488,0.62274 -0.62909,3.23211 -0.5427,5.7986 0.0864,2.56649 -0.46454,5.85773 -1.22429,7.31387 -2.31013,4.42757 -1.74469,5.53363 1.60834,3.14606 4.47513,-3.18657 5.2276,-5.20097 3.90495,-10.45369 -0.62432,-2.47938 -0.77715,-5.30376 -0.33963,-6.27641 0.43753,-0.97265 0.82636,-2.85222 0.86407,-4.17682 0.0377,-1.3246 0.55354,-2.57375 1.14627,-2.77589 1.42886,-0.48729 3.6722,4.41179 2.3846,5.20757 -0.52926,0.3271 -0.96229,1.72892 -0.96229,3.11516 0,2.26535 0.29576,2.45548 2.92227,1.8786 2.47292,-0.54314 2.97267,-0.30936 3.25,1.52037 l 0.32773,2.16221 2.75,-2.1724 2.75,-2.17241 0,2.1316 c 0,1.17238 -0.45,1.85348 -1,1.51356 -0.55,-0.33992 -1,-0.11115 -1,0.50837 0,0.64288 0.79806,0.87311 1.85912,0.53634 2.88905,-0.91695 5.14088,0.43035 5.14088,3.07585 0,1.32362 0.5537,3.2932 1.23045,4.37684 1.01846,1.63082 0.93232,2.26841 -0.5,3.70072 -1.6406,1.6406 -1.73045,1.60869 -1.73045,-0.61468 0,-2.14628 -0.31408,-2.29416 -3.70413,-1.74403 -2.66957,0.43321 -4.20571,0.14717 -5.5,-1.02414 -1.68538,-1.52525 -1.79587,-1.46037 -1.79587,1.05449 0,1.86827 -0.68951,2.94189 -2.27698,3.54545 -1.25234,0.47614 -3.75025,2.24194 -5.55091,3.92402 -1.80067,1.68207 -4.11272,3.32453 -5.13789,3.64991 -1.23476,0.3919 -2.58765,2.85645 -4.00792,7.30123 -1.17919,3.69029 -2.38479,7.38463 -2.6791,8.20963 -0.29431,0.825 0.61599,0.15 2.02288,-1.5 1.4069,-1.65 2.57418,-3.71776 2.59396,-4.59501 0.0559,-2.47906 3.7412,-5.3884 5.2672,-4.15817 1.57492,1.26967 5.07423,0.0419 6.91176,-2.42501 0.78261,-1.05068 2.83848,-1.91476 4.857,-2.04141 2.36701,-0.14852 4.15958,-1.03872 5.53756,-2.75 2.80122,-3.47876 3.82786,-3.16962 3.15913,0.95128 -0.31075,1.91492 -0.13933,3.74475 0.38094,4.0663 0.99617,0.61567 6.77212,-3.46928 6.86704,-4.85662 0.0304,-0.44475 1.36464,-2.46975 2.9649,-4.5 1.66714,-2.1151 2.8948,-4.87397 2.875,-6.46084 -0.0343,-2.74454 4.72565,-8.48242 6.57069,-7.92072 1.33536,0.40653 3.64474,-1.88578 3.64474,-3.61779 0,-0.85971 0.911,-2.53283 2.02445,-3.71804 1.19462,-1.27161 2.0815,-3.67225 2.16362,-5.85655 0.0765,-2.03589 0.49588,-3.92209 0.93187,-4.19155 0.43599,-0.26945 0.62495,-1.03801 0.41991,-1.7079 -0.20504,-0.66988 -0.64157,-2.56797 -0.97007,-4.21797 -0.47778,-2.3999 -0.38454,-2.64994 0.46617,-1.25 0.58489,0.9625 1.69371,1.75 2.46405,1.75 0.77034,0 1.8717,0.7875 2.44747,1.75 0.95552,1.59735 1.26833,1.50157 3.58598,-1.09796 1.6546,-1.85584 2.32927,-3.50921 1.93669,-4.74613 -0.68761,-2.16645 3.26499,-9.90591 5.05901,-9.90591 2.6302,0 4.42348,-3.51704 3.78848,-7.43008 -0.77903,-4.80063 1.42881,-4.6328 3.62847,0.27582 1.2968,2.89386 1.7614,3.15951 4.5,2.57305 4.23123,-0.9061 4.37055,-1.03748 5.52646,-5.21101 1.44949,-5.23353 2.79688,-6.61886 9.02561,-9.27977 1.37399,-0.58697 3.24791,-1.74572 4.16425,-2.575 0.91634,-0.82928 2.50893,-1.36499 3.53909,-1.19047 1.03015,0.17452 3.15442,-0.69066 4.7206,-1.92261 2.84314,-2.23641 3.87086,-2.44881 12.84347,-2.65434 3.52987,-0.0809 4.63626,0.22783 4.26686,1.19048 -0.2743,0.7148 0.18812,1.5632 1.02759,1.88534 1.34365,0.51561 1.32564,0.80745 -0.15051,2.43856 -0.92225,1.01908 -2.00653,1.64909 -2.40952,1.40003 -0.40299,-0.24906 -1.51024,0.40633 -2.46056,1.45642 -2.47224,2.73179 -1.24925,8.04358 1.85196,8.04358 1.32098,0 3.13807,1.22487 4.45048,3 3.94245,5.33245 8.54839,3.35275 12.49027,-5.36849 1.6777,-3.71184 1.82531,-3.79899 3.64516,-2.15204 2.02892,1.83615 4.02269,1.32144 4.02269,-1.03849 0,-0.87038 0.98995,-1.44098 2.5,-1.44098 2.38498,0 2.5,-0.27222 2.5,-5.91667 0,-3.64887 0.45115,-6.06705 1.17705,-6.30901 1.5405,-0.5135 0.12576,-2.77432 -1.73607,-2.77432 -0.79254,0 -1.44787,0.7875 -1.45629,1.75 -0.0131,1.49286 -0.15552,1.52959 -0.96949,0.25 -0.75192,-1.18204 -1.34543,-1.25769 -2.79998,-0.35688 -1.23104,0.7624 -2.41963,0.82199 -3.56871,0.17893 -0.9476,-0.5303 -3.05571,-0.67145 -4.68471,-0.31366 -3.32421,0.73012 -3.71616,-0.0173 -1.36905,-2.61088 1.47519,-1.63006 1.34602,-1.9843 -1.75,-4.79942 -1.83851,-1.67171 -3.85711,-3.05265 -4.48576,-3.06878 -1.3796,-0.0354 -2.35699,2.2671 -2.35699,5.55248 0,1.33001 -0.45,2.41821 -1,2.41821 -0.55,0 -1,-1.09844 -1,-2.44098 0,-1.34254 -0.4683,-2.73041 -1.04068,-3.08416 -0.57237,-0.35375 -0.80764,-1.3928 -0.52283,-2.30902 0.28482,-0.91621 0.11074,-2.31463 -0.38685,-3.1076 -0.62885,-1.00215 -0.16451,-2.32145 1.52283,-4.32673 2.57062,-3.05502 3.07643,-4.73151 1.42753,-4.73151 -0.55,0 -1,-1.99844 -1,-4.44098 0,-2.44254 -0.45,-4.7191 -1,-5.05902 -0.55,-0.33992 -1,-2.30338 -1,-4.36324 0,-2.45029 -1.04586,-5.39435 -3.0249,-8.51497 -2.78454,-4.39077 -3.26454,-4.71713 -6.04096,-4.10733 -1.85462,0.40735 -3.5892,0.18677 -4.50441,-0.57278 -1.21199,-1.00587 -1.91268,-0.8366 -3.7735,0.91155 -3.1748,2.98257 -3.63945,2.70205 -2.37087,-1.43135 0.82312,-2.68197 0.79837,-4.05816 -0.0988,-5.49479 -0.99141,-1.5875 -0.8526,-2.26103 0.80824,-3.92187 2.5631,-2.5631 3.76303,-2.52588 5.95803,0.18483 l 1.7734,2.19005 1.11488,-2.08318 c 0.90399,-1.68912 0.727,-2.57629 -0.93568,-4.69005 -2.42702,-3.08545 -5.48573,-3.33977 -8.34096,-0.69352 -2.84626,2.63794 -6.10504,3.09805 -5.92556,0.83665 0.17674,-2.227 -0.53471,-2.17812 -3.63889,0.25 -1.375,1.07554 -2.85349,1.96553 -3.28554,1.97776 -0.43206,0.0122 -1.65357,-2.00276 -2.71448,-4.47776 -2.12327,-4.95338 -2.72865,-5.2088 -7.04966,-2.97432 -1.95507,1.01101 -2.95034,2.2929 -2.95034,3.8 0,1.25088 -0.47154,2.74586 -1.04787,3.32219 -0.7305,0.7305 -0.67679,1.86233 0.17734,3.73694 1.0142,2.22593 0.96487,2.94942 -0.28643,4.20072 -1.34886,1.34886 -1.8508,1.31796 -4.66112,-0.28694 -2.15525,-1.23081 -2.98175,-2.33129 -2.61816,-3.48604 0.52381,-1.66364 0.33074,-2.22328 -2.92097,-8.46684 -2.0364,-3.91007 -2.05799,-5.64211 -0.11711,-9.39537 1.87443,-3.62475 3.89953,-3.75721 6.09992,-0.39899 0.91944,1.40324 2.04618,2.17687 2.50388,1.71917 0.81583,-0.81583 -2.25203,-11.82783 -4.39355,-15.77052 -0.59747,-1.1 -2.37218,-4.43614 -3.94379,-7.41364 -1.57161,-2.97751 -3.63027,-5.98287 -4.5748,-6.67858 -1.6139,-1.18875 -1.60741,-1.30754 0.10773,-1.97216 3.66403,-1.41981 9.26367,1.36737 14.08486,7.01063 4.38769,5.13585 7.98484,7.49232 9.35122,6.12593 0.33574,-0.33573 0.9341,-3.35553 1.3297,-6.71065 0.81829,-6.93998 2.86646,-9.97178 5.34623,-7.91375 0.8456,0.70178 2.21463,1.01611 3.0423,0.69851 0.98856,-0.37935 2.03098,0.43997 3.03841,2.38812 0.84347,1.63107 2.19701,2.96559 3.00789,2.96559 0.81088,0 1.47432,0.675 1.47432,1.5 0,0.825 0.79384,1.5 1.7641,1.5 2.35553,0 4.72841,5.69152 6.12044,14.68031 1.66858,10.7745 2.31747,11.88807 8.84834,15.18485 3.81333,1.92496 8.37621,5.63089 13.2874,10.7919 6.26272,6.58129 8.19898,9.48585 11.90032,17.85157 2.43133,5.49525 8.61883,17.034 13.75,25.64166 5.13117,8.60766 9.3294,16.09464 9.3294,16.63773 0,0.93583 -3.17583,8.23477 -8.71069,20.01958 -2.20507,4.69503 -3.14465,5.59768 -8.14104,7.82097 -3.10655,1.38236 -8.2229,3.17916 -11.36967,3.9929 -6.81128,1.76135 -7.64028,1.44309 -16.08295,-6.17438 -11.71359,-10.56869 -21.10808,-9.15295 -28.02525,4.2234 -0.89792,1.73638 -2.9705,8.03335 -4.60573,13.99328 -1.63523,5.95993 -4.49874,15.33623 -6.36335,20.83623 -1.86461,5.5 -3.97088,13.15 -4.68062,17 -1.66964,9.05712 -2.43606,10.45731 -10.93101,19.97033 -4.11659,4.60995 -7.53079,9.45849 -8.09795,11.5 -0.53932,1.94132 -0.9831,8.78346 -0.98616,15.20475 l -0.006,11.67508 5.38766,13.32492 c 5.27609,13.049 6.94513,17.83485 12.0758,34.62654 3.08812,10.10685 3.08401,9.86057 0.17407,10.41684 -1.56229,0.29865 -2.75064,-0.16992 -3.50848,-1.38342 -0.62988,-1.00927 -1.60034,-1.83504 -2.15616,-1.83504 -1.03357,0 -0.66089,2.65619 1.25197,8.92293 l 1.04481,3.42293 2.78843,-3.41654 c 1.53364,-1.87909 3.07137,-3.1336 3.41717,-2.7878 0.3458,0.3458 2.34717,6.29871 4.44749,13.2287 4.10341,13.53917 7.38103,18.75336 13.80638,21.96386 2.17575,1.08714 3.03876,2.10829 2.64624,3.13116 -0.8373,2.18198 2.12614,2.98405 5.643,1.52732 2.37178,-0.98242 3.59911,-0.9796 5.99735,0.0138 3.32886,1.37886 9.39693,9.51762 8.35413,11.20491 -0.88379,1.43 -17.31849,0.25498 -21.62669,-1.54623 -3.23101,-1.35084 -4.35605,-2.90369 -7.09706,-9.79574 -1.32509,-3.33184 -1.78155,-3.63539 -5.54483,-3.68732 -4.68198,-0.0646 -4.85605,0.41743 -2.10086,5.81804 2.7465,5.38359 2.56264,6.33809 -1.80375,9.364 -3.4756,2.40859 -4.57554,2.62219 -12.75,2.47596 -4.92044,-0.088 -10.52125,-0.3382 -12.44625,-0.55597 z m 43.06574,-6.31917 c 2.86298,-1.53222 2.34802,-2.96482 -1.06574,-2.96482 -2.82114,0 -3.99283,1.67384 -2.33333,3.33333 0.87716,0.87717 1.12085,0.85075 3.39907,-0.36851 z m -14.76759,-17.5963 c 0.34732,-0.34732 0.15563,-1.52063 -0.42597,-2.60736 -1.24764,-2.33124 -3.50219,-0.84534 -2.53635,1.67162 0.62508,1.62893 1.87447,2.02359 2.96232,0.93574 z m -5.29815,-17.86852 c 0,-0.825 -0.45,-1.5 -1,-1.5 -0.55,0 -1,0.675 -1,1.5 0,0.825 0.45,1.5 1,1.5 0.55,0 1,-0.675 1,-1.5 z m -21.92325,-19.10949 c -1.57957,-6.27303 -17.40767,-45.95947 -20.61417,-51.68673 -2.925,-5.22448 -4.25587,-5.50626 -6.2902,-1.33185 -1.12009,2.29842 -1.09315,3.38106 0.17237,6.92616 4.59583,12.87432 21.58856,48.27247 24.80409,51.67028 2.10002,2.21906 2.37136,2.28449 2.68655,0.64786 0.19283,-1.00129 -0.14856,-3.80286 -0.75864,-6.22572 z m 9.38355,-15.34665 c 1.62974,-1.80084 1.64205,-2.08437 0.15499,-3.57143 -0.88841,-0.88841 -1.61529,-2.47404 -1.61529,-3.52362 0,-2.77447 -3.0735,-10.02142 -4.00581,-9.44522 -1.12214,0.69352 -0.49299,12.44699 0.84288,15.74641 1.32046,3.26134 2.24633,3.42032 4.62323,0.79386 z m -231.4603,-0.0439 c 0,-0.55 -0.19844,-1 -0.44098,-1 -0.24254,0 -0.7191,0.45 -1.05902,1 -0.33992,0.55 -0.14148,1 0.44098,1 0.58246,0 1.05902,-0.45 1.05902,-1 z m 7.04966,-2.52568 c 3.02818,-1.56594 3.94705,-3.47432 1.67285,-3.47432 -1.68907,0 -5.72251,2.85932 -5.72251,4.0567 0,1.28324 0.61221,1.19519 4.04966,-0.58238 z m 43.1216,-1.12931 c 2.12974,-1.92738 2.26419,-3.2952 0.66822,-6.79796 -2.13251,-4.68035 -5.83948,-2.00111 -5.83948,4.22054 0,4.54864 1.9301,5.51063 5.17126,2.57742 z m -60.09155,-5.94101 c 1.15647,-1.39347 1.0233,-1.55212 -1.04923,-1.25 -1.3056,0.19032 -2.55907,0.90854 -2.78548,1.59604 -0.59253,1.79918 2.26861,1.54099 3.83471,-0.34604 z m 52.92029,-9.40396 c 0,-0.55 -0.45,-1 -1,-1 -0.55,0 -1,0.45 -1,1 0,0.55 0.45,1 1,1 0.55,0 1,-0.45 1,-1 z m 39.98469,-10.25 c -0.008,-1.2375 -0.43095,-2.90711 -0.93895,-3.71024 -0.79047,-1.2497 -1.2208,-1.19131 -2.98469,0.40499 -2.64165,2.39066 -2.59935,3.40333 0.18895,4.52409 3.37294,1.35575 3.75137,1.23225 3.73469,-1.21884 z m -7.48469,0.25 c 0.33992,-0.55 0.14148,-1 -0.44098,-1 -0.58246,0 -1.05902,0.45 -1.05902,1 0,0.55 0.19844,1 0.44098,1 0.24254,0 0.7191,-0.45 1.05902,-1 z m -1,-8 c 0.33992,-0.55 0.14148,-1 -0.44098,-1 -0.58246,0 -1.05902,0.45 -1.05902,1 0,0.55 0.19844,1 0.44098,1 0.24254,0 0.7191,-0.45 1.05902,-1 z m 8.5,-1.05902 c 0,-0.51754 -0.45,-0.94098 -1,-0.94098 -0.55,0 -1,0.70156 -1,1.55902 0,0.85746 0.45,1.2809 1,0.94098 0.55,-0.33992 1,-1.04148 1,-1.55902 z m -89.44113,-0.40918 c 1.55186,-1.17377 1.62852,-1.47457 0.38226,-1.5 -0.85738,-0.0175 -2.43238,0.62889 -3.5,1.4364 -1.55186,1.17377 -1.62852,1.47457 -0.38226,1.5 0.85738,0.0175 2.43238,-0.62889 3.5,-1.4364 z m 113.89289,-5.98862 c 2.56369,-7.02919 2.67592,-10.08574 0.34178,-9.30769 -1.8852,0.6284 -4.67509,9.7196 -4.08971,13.32684 0.30682,1.89072 0.6637,3.43767 0.79306,3.43767 0.12937,0 1.45906,-3.35557 2.95487,-7.45682 z m -18.45176,-0.19817 c 0,-2.23704 -2.60445,-1.50856 -3.77259,1.05522 -0.60149,1.32013 -0.82274,2.67111 -0.49166,3.00218 0.83939,0.8394 4.26425,-2.41933 4.26425,-4.0574 z m 58.19517,0.65354 c -0.97201,-2.62757 -2.27279,-1.443 -1.7115,1.55859 0.19982,1.06857 0.39774,2.14536 0.43982,2.39286 0.0421,0.2475 0.54023,-0.0137 1.10699,-0.58048 0.63883,-0.63883 0.70142,-1.92003 0.16469,-3.37097 z m -27.8925,-3.40655 c 0.49811,-1.49435 0.63826,-2.98441 0.31143,-3.31124 -0.8237,-0.82369 -5.6141,4.49953 -5.6141,6.23854 0,2.44964 4.30198,0.0748 5.30267,-2.9273 z m -48.86905,1.58131 c 0.5135,-0.28508 0.0635,-0.83508 -1,-1.22223 -2.06442,-0.75153 -4.75792,0.71517 -3.89058,2.11855 0.47803,0.77348 2.57509,0.38914 4.89058,-0.89632 z m -76.63362,-3.37331 c 0.66,-0.66 1.2,-1.80083 1.2,-2.53518 0,-1.02531 -0.46417,-1.08677 -2,-0.26482 -1.1,0.5887 -2,1.72953 -2,2.53518 0,1.77614 1.17733,1.88749 2.8,0.26482 z m 79.10308,-0.18322 c 0.89163,-1.07435 0.76999,-1.52826 -0.54477,-2.03278 -1.98352,-0.76115 -3.88306,0.75792 -2.91216,2.32887 0.90717,1.46783 2.0761,1.36771 3.45693,-0.29609 z m 114.39345,-13.51375 c 0.59066,-10.24935 0.1338,-10.80047 -5.04653,-6.08781 -3.38053,3.07533 -4.36002,6.98478 -1.75,6.98478 1.75027,0 1.98373,2.11627 0.40736,3.69264 -1.18847,1.18847 -0.004,4.2577 2.94554,7.63406 1.52857,1.74963 1.62381,1.72233 2.25746,-0.64697 0.36386,-1.36053 0.89764,-6.57004 1.18617,-11.5767 z m -87.97801,4.2563 c 0.52275,-4.7872 0.42286,-5.10446 -1.45284,-4.61395 -1.50213,0.39281 -1.87232,1.09203 -1.45612,2.75032 0.3699,1.47378 -0.11088,2.82901 -1.42573,4.01894 -2.27722,2.06085 -2.49762,3.57157 -0.77272,5.29647 1.98633,1.98633 4.47295,-1.64168 5.10741,-7.45178 z m 49.26292,1.35281 c -2.61197,-6.21439 -3.73827,-12.81824 -2.45076,-14.3696 0.87286,-1.05174 0.89046,-1.7214 0.0669,-2.545 -0.8236,-0.8236 -1.64571,-0.48354 -3.12435,1.29238 -2.25734,2.71117 -2.60846,4.56499 -0.96818,5.11175 1.27355,0.42452 3.85767,7.31671 3.87993,10.34833 0.0169,2.3 1.9095,4.63327 3.14091,3.87222 0.44313,-0.27387 0.19814,-1.9434 -0.54441,-3.71008 z m -142.58144,1.84688 c 0,-0.24254 -0.45,-0.7191 -1,-1.05902 -0.55,-0.33992 -1,-0.14148 -1,0.44098 0,0.58246 0.45,1.05902 1,1.05902 0.55,0 1,-0.19844 1,-0.44098 z m 73,-5.11804 c 0,-1.65007 -1.58044,-1.92885 -2.5,-0.44098 -0.81551,1.31952 0.38021,3.19207 1.5691,2.45729 0.51199,-0.31643 0.9309,-1.22377 0.9309,-2.01631 z m 33.68311,0.37152 c -0.31922,-0.79773 -0.55618,-0.56078 -0.60416,0.60417 -0.0434,1.05416 0.19292,1.64479 0.52522,1.3125 0.33229,-0.3323 0.36781,-1.1948 0.0789,-1.91667 z m 12.31689,0.1875 c 0,-0.55 -0.45,-1 -1,-1 -0.55,0 -1,0.45 -1,1 0,0.55 0.45,1 1,1 0.55,0 1,-0.45 1,-1 z m 4.5,-2 c 0.33992,-0.55 0.14148,-1 -0.44098,-1 -0.58246,0 -1.05902,0.45 -1.05902,1 0,0.55 0.19844,1 0.44098,1 0.24254,0 0.7191,-0.45 1.05902,-1 z m -138.94113,-5.4682 c 1.06762,-0.8075 1.46464,-1.4825 0.88226,-1.5 -0.58238,-0.0175 -1.93238,0.62889 -3,1.4364 -1.06762,0.8075 -1.46464,1.4825 -0.88226,1.5 0.58238,0.0175 1.93238,-0.62889 3,-1.4364 z m 88.85129,-2.43252 c 0.96943,-1.07122 1.30473,-2.15746 0.76829,-2.48899 -0.90888,-0.56172 -2.02459,0.4163 -3.58177,3.13971 -1.10713,1.93631 0.89034,1.47432 2.81348,-0.65072 z m 36.08984,0.90072 c 0.33992,-0.55 0.14148,-1 -0.44098,-1 -0.58246,0 -1.05902,0.45 -1.05902,1 0,0.55 0.19844,1 0.44098,1 0.24254,0 0.7191,-0.45 1.05902,-1 z m 12.02035,0.23469 c 0.5612,-0.40408 1.56014,-1.96361 2.21988,-3.46563 1.05875,-2.41044 0.95829,-2.86004 -0.856,-3.83102 -1.13054,-0.60504 -2.18103,-0.95112 -2.33442,-0.76906 -1.44077,1.71002 -2.34277,4.90675 -1.88184,6.66935 0.59908,2.29087 1.20089,2.58548 2.85238,1.39636 z m -144.71202,-3.30969 c -0.19708,-0.59125 -0.78583,-1.075 -1.30833,-1.075 -0.5225,0 -1.11125,0.48375 -1.30833,1.075 -0.19709,0.59125 0.39166,1.075 1.30833,1.075 0.91667,0 1.50542,-0.48375 1.30833,-1.075 z m 119.96162,-2.175 c 0.55816,-0.6875 1.1838,-2.15 1.39032,-3.25 0.24665,-1.31373 1.17842,-2.00828 2.71549,-2.02412 1.287,-0.0133 3.07896,-0.93515 3.98212,-2.04863 2.59956,-3.20491 4.88646,-3.63035 6.5728,-1.22276 l 1.4854,2.12071 2.00869,-2.4126 c 1.10478,-1.32693 2.02366,-3.27717 2.04196,-4.33386 0.0183,-1.05669 0.76952,-2.73481 1.66939,-3.72915 1.51864,-1.67808 1.50826,-1.85696 -0.14461,-2.49122 -1.1294,-0.43339 -2.22536,-0.0753 -2.99636,0.97915 -0.6686,0.91436 -1.6243,1.66248 -2.12378,1.66248 -0.49947,0 -1.67539,1.2375 -2.61314,2.75 -1.20038,1.93608 -1.71289,2.24952 -1.73162,1.05902 -0.0146,-0.93004 0.42339,-1.9691 0.97339,-2.30902 1.70584,-1.05427 1.10127,-2.5 -1.04545,-2.5 -1.125,0 -3.23949,1.19403 -4.69887,2.65341 -1.45937,1.45937 -2.81049,2.18215 -3.00249,1.60616 -0.192,-0.57599 -1.22751,-0.81754 -2.30114,-0.53678 -1.34159,0.35083 -1.95205,0.005 -1.95205,-1.10616 0,-0.88915 -0.45,-1.61663 -1,-1.61663 -0.55,0 -1,0.91412 -1,2.03138 0,1.11727 -0.65382,2.28228 -1.45294,2.58893 -1.15428,0.44294 -1.21406,0.94005 -0.29083,2.41838 0.91612,1.46694 0.80699,2.60553 -0.51558,5.37899 -1.57675,3.30647 -1.57429,3.57844 0.0408,4.51984 2.26798,1.32192 2.78266,1.29772 3.98848,-0.18752 z m -81.77775,-3.5 c 0.01,-1.51995 -0.54632,-1.559 -3.05794,-0.21482 -1.06384,0.56935 -1.93426,1.65202 -1.93426,2.40592 0,1.10351 0.48585,1.14539 2.4922,0.21481 1.37071,-0.63575 2.49571,-1.71841 2.5,-2.40591 z m 117.5078,0.75 c 0.49012,0.79303 1.24689,0.63405 2.53626,-0.53282 1.01074,-0.91471 2.28498,-1.38668 2.83163,-1.04883 2.03883,1.26007 2.34619,-1.74976 0.33755,-3.30556 l -2.0822,-1.61279 2.45216,-3 c 1.99724,-2.44346 2.62287,-2.73059 3.37239,-1.54775 0.50614,0.79874 0.69838,1.81124 0.42721,2.25 -0.27117,0.43876 -0.0323,0.79775 0.5308,0.79775 3.36582,0 4.10138,-8.98376 0.97411,-11.89725 l -2.12009,-1.97516 2.12009,-4.37952 c 1.16605,-2.40874 2.12009,-4.68744 2.12009,-5.06379 0,-1.47077 -3.48743,-0.575 -5.64209,1.44921 l -2.27099,2.13348 0.20654,-2.88247 c 0.16513,-2.30448 -0.24462,-2.94675 -2.04346,-3.20304 -2.61539,-0.37262 -2.86396,-1.42703 -0.75,-3.18146 0.825,-0.68469 1.5,-1.86479 1.5,-2.62244 0,-0.75766 0.37323,-1.37756 0.8294,-1.37756 0.45617,0 0.79367,0.99335 0.75,2.20743 -0.0635,1.765 0.54205,2.26122 3.02114,2.47575 2.48826,0.21532 3.33003,-0.23539 4.2627,-2.28237 1.48356,-3.25605 0.91524,-4.09048 -3.64937,-5.35821 -4.81678,-1.33776 -5.21387,-1.31107 -5.21387,0.35041 0,1.43001 -2.06854,2.60699 -4.58179,2.60699 -2.59504,0 -1.46434,-2.01036 2.08179,-3.70139 2.44855,-1.16763 3.5,-2.3363 3.5,-3.8902 0,-1.75891 -0.43385,-2.10772 -2.08467,-1.67602 -1.14657,0.29984 -2.55142,1.56957 -3.1219,2.82163 -1.35514,2.97422 -4.45496,3.71386 -7.4207,1.77063 -2.14648,-1.40642 -2.37273,-1.4063 -2.37273,0.001 0,0.8558 0.48921,1.85834 1.08713,2.22788 0.70979,0.43868 0.74706,1.01196 0.10736,1.65166 -1.26215,1.26247 -5.19449,-0.7492 -5.19449,-2.65704 0,-0.75982 -0.5625,-1.5708 -1.25,-1.8022 -0.97451,-0.32799 -0.94752,-0.78714 0.12244,-2.08333 1.55753,-1.88683 5.19339,-2.19679 6.80966,-0.58052 1.53778,1.53778 5.3179,-1.00554 5.3179,-3.57796 0,-2.33932 -6.6788,-5.01561 -8.57969,-3.438 -1.48626,1.23349 -2.65942,-0.0731 -1.41354,-1.5743 1.18771,-1.4311 -1.51385,-7.49184 -3.33947,-7.49184 -0.65241,0 -1.80358,0.98858 -2.55815,2.19684 l -1.37195,2.19684 -1.67442,-2.06782 c -2.28767,-2.82516 -5.51433,-3.68532 -8.0004,-2.13274 -1.62451,1.01452 -1.93838,1.95093 -1.47745,4.40789 0.43236,2.3047 0.17116,3.27861 -0.99984,3.72796 -2.57606,0.98853 -1.98745,3.80373 0.66491,3.18013 2.67664,-0.62931 5.28905,0.80969 4.3191,2.3791 -0.37792,0.61149 -1.53402,1.1118 -2.5691,1.1118 -1.03508,0 -2.16008,0.45 -2.5,1 -1.05981,1.71481 -2.5,1.09649 -2.5,-1.07332 0,-1.4381 -0.53617,-1.96864 -1.75,-1.73164 -2.13731,0.4173 -5.25,-2.06991 -5.25,-4.19504 0,-0.85554 -0.7875,-2.3079 -1.75,-3.22747 -3.98142,-3.80387 -4.1214,-4.17959 -2.33692,-6.27253 0.93788,-1.1 2.22162,-3.2159 2.85277,-4.702 0.96062,-2.26189 0.91026,-2.61094 -0.30916,-2.14301 -0.80118,0.30744 -1.45669,0.98425 -1.45669,1.50402 0,0.51977 -1.27144,1.38826 -2.82543,1.92998 -1.99555,0.69565 -2.80327,1.63441 -2.75,3.19611 0.065,1.90626 -0.37271,2.16655 -3.17457,1.88766 -2.42822,-0.2417 -3.25,0.0748 -3.25,1.25187 0,0.86646 0.82777,1.57537 1.83948,1.57537 1.01172,0 2.35207,1.125 2.97857,2.5 1.37395,3.0155 3.18195,3.27961 3.18195,0.46482 0,-1.72531 0.30452,-1.87221 2,-0.96482 1.1,0.5887 2,1.54666 2,2.1288 0,0.58214 -0.9,1.29379 -2,1.58145 -2.88963,0.75566 -2.50448,3.28975 0.5,3.28975 2.70562,0 3.08185,1.04428 1.46482,4.06574 -1.39582,2.60811 -3.94035,2.55671 -3.25457,-0.0657 0.85941,-3.2864 -2.0651,-2.35453 -3.61755,1.1527 -1.26213,2.85136 -1.2194,3.28148 0.44702,4.5 1.0134,0.74102 2.17439,1.3473 2.57998,1.3473 1.26956,0 3.8803,-3.07574 3.8803,-4.57143 0,-0.85714 1,-1.42857 2.5,-1.42857 1.375,0 2.82625,-0.0337 3.225,-0.075 1.9825,-0.20509 0.90797,1.7761 -1.79906,3.31705 -2.43716,1.38732 -2.99573,2.30364 -2.74313,4.5 0.37744,3.28185 1.87393,3.40225 3.46762,0.27898 l 1.15044,-2.25458 1.76594,2.69517 c 1.5095,2.3038 1.89585,2.46304 2.66055,1.0966 0.49203,-0.87922 0.61184,-2.4895 0.26624,-3.5784 -0.48792,-1.53733 -0.16628,-1.97986 1.43901,-1.97986 1.17101,0 2.06739,-0.65037 2.06739,-1.5 0,-1.82287 2.13287,-1.96075 3.86732,-0.25 1.01538,1.00151 1.52435,0.90211 2.56024,-0.5 0.71111,-0.9625 1.99332,-1.75 2.84935,-1.75 0.85603,0 1.73298,-0.52967 1.94877,-1.17705 0.23594,-0.7078 0.92407,-0.84843 1.7261,-0.35275 0.99972,0.61786 0.66291,1.17579 -1.34482,2.22775 -2.35995,1.2365 -2.60159,1.81374 -2.03147,4.85275 0.42235,2.25135 0.26114,3.4493 -0.4642,3.4493 -0.61121,0 -1.11129,1.3875 -1.11129,3.08333 0,3.57406 2.30397,3.59622 2.82756,0.0272 0.18016,-1.22805 1.08016,-2.50998 2,-2.84873 0.91984,-0.33875 1.95963,-1.04388 2.31064,-1.56696 0.351,-0.52309 1.13516,-0.64392 1.74256,-0.26853 0.76334,0.47178 0.50606,1.8553 -0.83319,4.48046 -2.08832,4.09344 -1.74761,8.57585 0.58385,7.68118 0.75568,-0.28999 1.36858,0.10054 1.36858,0.87201 0,1.81562 -2.74326,4.54004 -4.57143,4.54004 -0.78571,0 -1.42857,0.675 -1.42857,1.5 0,0.825 0.38345,1.5 0.85212,1.5 1.77328,0 7.68854,-4.64079 8.63501,-6.77456 0.54292,-1.22399 1.31003,-2.22544 1.70469,-2.22544 1.3148,0 2.115,7.09318 0.93348,8.2747 -1.28829,1.28829 -1.5249,4.7253 -0.3253,4.7253 1.59583,0 3.20074,-2.45706 3.23327,-4.95 0.0467,-3.57875 3.23926,-7.05 6.48401,-7.05 2.1843,0 2.5557,0.33252 1.95465,1.75 -3.65221,8.61314 -4.21835,12.10358 -2.2779,14.04403 0.92537,0.92537 0.12258,2.15162 -3.56795,5.45 -3.55134,3.17398 -4.58617,4.71185 -4.07047,6.04914 0.63745,1.653 0.83042,1.66745 2.46867,0.18486 1.25228,-1.1333 1.98348,-1.27448 2.47572,-0.47803 z m 3.5,-13.44098 c 0,-0.85746 0.45,-1.55902 1,-1.55902 0.55,0 1,0.42344 1,0.94098 0,0.51754 -0.45,1.2191 -1,1.55902 -0.55,0.33992 -1,-0.0835 -1,-0.94098 z m -8.45729,-26.48992 c -0.31644,-0.512 -0.11799,-1.21356 0.44098,-1.55902 1.19337,-0.73755 3.01631,0.19857 3.01631,1.54894 0,1.2168 -2.70662,1.22469 -3.45729,0.0101 z m -19.11245,-16.39025 c -0.80066,-2.08649 0.1997,-3.44889 1.54477,-2.10382 0.56802,0.56802 0.58275,1.52247 0.0371,2.4053 -0.76723,1.24141 -1.0074,1.19563 -1.58189,-0.30148 z m 4.60154,0.57115 c 0.0575,-1.35548 2.66489,-4.25 3.82844,-4.25 1.4817,0 1.39819,1.07577 -0.25229,3.25 -1.33423,1.75763 -3.63556,2.40116 -3.57615,1 z m -131.4627,54.6382 c 0.37792,-0.6115 0.25916,-1.399 -0.26393,-1.75 -0.52308,-0.35101 -1.24161,-1.4257 -1.59673,-2.3882 -0.74003,-2.00574 -2.71524,-2.37223 -2.69479,-0.5 0.0509,4.65882 2.80786,7.46586 4.55545,4.6382 z m 141.75335,-4.2765 c -0.8177,-1.46114 -1.09884,-1.45662 -3.25314,0.0523 -2.25937,1.58252 -2.28069,1.70826 -0.50919,3.00361 1.55874,1.13978 2.06926,1.13157 3.25314,-0.0523 0.93348,-0.93349 1.10418,-1.94043 0.50919,-3.00362 z m 68.87964,3.03129 c 1.09271,-0.83035 1.49848,-2.07202 1.13337,-3.4682 -0.47987,-1.83501 -0.14846,-2.17479 2.12123,-2.17479 3.96779,0 3.04452,-3.40029 -1.03172,-3.7997 -2.4587,-0.24091 -3.28652,0.20042 -4.22037,2.25 -0.63895,1.40234 -1.84637,2.5497 -2.68316,2.5497 -1.99565,0 -1.93529,1.88522 0.13355,4.17126 1.94285,2.14682 2.29468,2.18332 4.5471,0.47173 z M 330.45862,497.8697 c 0,-0.77163 -0.7875,-1.55463 -1.75,-1.73999 -1.72374,-0.33196 -2.43634,1.78995 -1.0625,3.1638 1.04821,1.0482 2.8125,0.15505 2.8125,-1.42381 z m 24.575,-1.20536 c -0.12369,-1.1957 -1.49529,-0.96414 -1.925,0.325 -0.22,0.66 0.14,1.02 0.8,0.8 0.66,-0.22 1.16625,-0.72625 1.125,-1.125 z m -88.66605,-3.87232 c -1.10246,-1.78382 -2.40767,-0.74207 -2.37715,1.89732 0.0301,2.60563 0.1072,2.6504 1.46797,0.85268 0.78989,-1.04353 1.19902,-2.28103 0.90918,-2.75 z m 12.46293,1.24766 c 0.75454,-0.47797 1.20454,-1.34886 1,-1.93531 -0.22218,-0.63706 -1.37823,-0.29003 -2.87188,0.86211 -2.5382,1.95785 -0.95635,2.86477 1.87188,1.0732 z m 17.12812,-2.06516 c 0,-0.53065 -0.9,-1.44648 -2,-2.03518 -1.54713,-0.828 -2,-0.76049 -2,0.29815 0,0.75268 0.3,1.66852 0.66667,2.03518 1.00698,1.00699 3.33333,0.79891 3.33333,-0.29815 z m 37.55357,-0.44589 c 0.77589,-0.7759 1.98125,-1.60272 2.67857,-1.83738 1.01824,-0.34267 1.01328,-0.73517 -0.0252,-1.99364 -0.75697,-0.91732 -1.03266,-2.60448 -0.66497,-4.06948 0.76311,-3.04047 -1.24944,-7.38132 -2.73395,-5.89681 -0.57934,0.57934 -0.6753,2.00457 -0.22603,3.35736 0.96501,2.90578 0.55132,8.23395 -0.67425,8.68399 -0.9805,0.36006 -1.27857,3.16667 -0.33631,3.16667 0.31428,0 1.20625,-0.63482 1.98214,-1.41071 z m 10.44643,-1.58929 c 0,-0.55 -0.47656,-1 -1.05902,-1 -0.58246,0 -0.7809,0.45 -0.44098,1 0.33992,0.55 0.81648,1 1.05902,1 0.24254,0 0.44098,-0.45 0.44098,-1 z m -69.90968,-3.75478 c -0.98359,-3.67793 -4.09032,-4.32348 -4.09032,-0.84993 0,1.84866 0.40911,2.38495 1.5,1.96634 0.96343,-0.36971 1.5,0.0204 1.5,1.0904 0,0.9163 0.41051,1.4123 0.91224,1.10221 0.50173,-0.31009 0.58187,-1.79915 0.17808,-3.30902 z m 77.41657,-0.23761 c -1.18935,-1.31421 -1.23679,-2.29846 -0.26764,-5.55249 0.64788,-2.17531 1.75909,-4.31498 2.46936,-4.75481 1.6707,-1.03458 1.665,-2.70031 -0.009,-2.70031 -2.27699,0 -6.68347,2.45424 -6.69156,3.72695 -0.0116,1.82451 -4.47946,4.41302 -6.3669,3.68875 -0.90249,-0.34632 -1.6409,-0.22153 -1.6409,0.27731 0,1.64527 2.3617,3.30699 4.7,3.30699 1.59342,0 2.3,0.58401 2.3,1.90102 0,1.52236 0.69244,1.8814 3.47624,1.80249 3.11859,-0.0884 3.32751,-0.26288 2.03065,-1.6959 z m -66.50689,-0.44859 c 0,-0.24254 -0.45,-0.7191 -1,-1.05902 -0.55,-0.33992 -1,-0.14148 -1,0.44098 0,0.58246 0.45,1.05902 1,1.05902 0.55,0 1,-0.19844 1,-0.44098 z m 11,-1.67705 c 0,-0.55 -0.45,-0.72189 -1,-0.38197 -0.55,0.33992 -1,1.06803 -1,1.61803 0,0.55 0.45,0.72189 1,0.38197 0.55,-0.33992 1,-1.06803 1,-1.61803 z m 81.86358,-1.92788 c 3.00752,-1.56761 3.8057,-2.50275 3.41416,-4 -0.28105,-1.07475 -0.62856,-1.95409 -0.77225,-1.95409 -1.11735,0 -7.49882,3.18019 -7.99613,3.98485 -0.9849,1.5936 -2.78902,1.18632 -2.14773,-0.48485 0.74112,-1.93134 -0.75205,-1.93943 -2.35106,-0.0127 -3.58716,4.32225 3.08732,5.99329 9.85301,2.46682 z m -52.20474,-0.0637 c 1.42979,0.65145 2.86304,0.92103 3.18502,0.59906 0.91492,-0.91493 -1.27912,-3.88553 -3.67566,-4.97661 -2.35572,-1.0725 -2.73307,-2.04572 -1.1682,-3.01287 1.80811,-1.11747 1.04498,-2.5 -1.37996,-2.5 -2.22946,0 -2.37175,0.34225 -2.25,5.4121 0.10259,4.2724 0.39942,5.18907 1.40957,4.35298 0.90591,-0.74981 2.03882,-0.71321 3.87923,0.12534 z m 39.34116,-3.04538 c 0,-1.42838 -2.7653,-0.93686 -4.50246,0.80031 -1.30904,1.30904 -1.3794,1.80966 -0.34427,2.44941 1.30283,0.80519 4.84673,-1.57099 4.84673,-3.24972 z m 27,-1.46745 c 0,-1.3288 -0.27149,-1.39713 -1.5,-0.37756 -0.825,0.68469 -1.5,1.41479 -1.5,1.62244 0,0.20766 0.675,0.37756 1.5,0.37756 0.825,0 1.5,-0.7301 1.5,-1.62244 z m -98.58179,0.0155 c 0.86999,-0.33389 1.58179,-1.04019 1.58179,-1.5696 0,-1.39049 -4.26568,-0.55929 -4.755,0.92654 -0.44831,1.36128 0.69677,1.59331 3.17321,0.64301 z m 11.58179,-1.28607 c 0,-1.22681 -2.81728,-2.21165 -3.44079,-1.2028 -0.27766,0.44927 -0.21707,1.10462 0.13464,1.45633 0.95302,0.95301 3.30615,0.77257 3.30615,-0.25353 z m 69.75047,-0.85699 c 0.6122,-1.83866 -2.43058,-1.526 -3.13997,0.32265 -0.42084,1.09668 -0.1,1.475 1.06014,1.25 0.915,-0.17746 1.85092,-0.88515 2.07983,-1.57265 z m -29.09555,-2.70687 c -0.63953,-1.66661 -3.65492,-2.1557 -3.65492,-0.59282 0,1.03077 3.24103,3.142 3.86521,2.51782 0.21003,-0.21003 0.1154,-1.07628 -0.21029,-1.925 z m -15.65492,-0.54313 c 0,-0.55 -0.45,-1 -1,-1 -0.55,0 -1,0.45 -1,1 0,0.55 0.45,1 1,1 0.55,0 1,-0.45 1,-1 z m 42.77083,-1.1875 c -0.61807,-1.85422 -2.77083,-2.16176 -2.77083,-0.39583 0,0.87083 0.7125,1.58333 1.58333,1.58333 0.87084,0 1.40521,-0.53438 1.1875,-1.1875 z m -8.37782,-1.39429 c 0.85418,-2.22596 0.78788,-2.41821 -0.83399,-2.41821 -1.76659,0 -2.89606,1.64564 -2.05902,3 0.91226,1.47607 2.20294,1.21651 2.89301,-0.58179 z m -17.39301,-0.33642 c 0,-0.50502 0.27314,-1.63002 0.60699,-2.5 0.43514,-1.13395 0.0104,-1.58179 -1.5,-1.58179 -2.05125,0 -2.97986,2.7938 -1.44032,4.33333 0.96536,0.96537 2.33333,0.81789 2.33333,-0.25154 z m 8.59196,-1.58179 c 0.90093,-1.375 2.26131,-2.5 3.02305,-2.5 2.35903,0 1.52361,-1.74839 -1.15688,-2.42115 -3.13698,-0.78733 -5.45813,1.27508 -5.45813,4.84972 0,3.25917 1.48393,3.28868 3.59196,0.0714 z m -37.59196,0 c 0,-0.825 -0.45,-1.5 -1,-1.5 -0.55,0 -1,0.675 -1,1.5 0,0.825 0.45,1.5 1,1.5 0.55,0 1,-0.675 1,-1.5 z m -19.40489,-5 c 0.66723,-2.71732 0.57967,-2.87068 -0.92924,-1.62756 -0.91623,0.75485 -1.66587,2.53235 -1.66587,3.95 0,3.23231 1.57791,1.82019 2.59511,-2.32244 z m 38.40489,0.5 c 0,-0.55 -0.675,-1 -1.5,-1 -0.825,0 -1.5,0.45 -1.5,1 0,0.55 0.675,1 1.5,1 0.825,0 1.5,-0.45 1.5,-1 z m -29.74018,-2.57882 c 0.63396,-3.31634 -1.64465,-4.28788 -4.33861,-1.84988 -2.00029,1.81024 -1.99972,1.81641 0.28725,3.08585 3.19394,1.77288 3.49366,1.68145 4.05136,-1.23597 z m 23.99018,-0.82219 c 1.88604,-0.0297 2.08644,-0.55868 1.14301,-3.0172 -0.86982,-2.26672 -2.39301,-1.95176 -2.39301,0.49483 0,1.78238 -0.52002,2.03181 -3.67014,1.76041 -2.36338,-0.20361 -3.82497,0.14831 -4.105,0.9884 -0.33488,1.00462 0.45153,1.13174 3.42014,0.55286 2.12025,-0.41346 4.6425,-0.76414 5.605,-0.7793 z m -17.25,-0.04 c 0,-0.24254 -0.45,-0.7191 -1,-1.05902 -0.55,-0.33992 -1,-0.14148 -1,0.44098 0,0.58246 0.45,1.05902 1,1.05902 0.55,0 1,-0.19844 1,-0.44098 z m 31.8625,-2.43947 c -0.2177,-0.63386 -0.91298,-0.71347 -1.74062,-0.19931 -0.75796,0.47089 -1.04467,1.39567 -0.63713,2.05509 0.87628,1.41785 2.94702,-0.19831 2.37775,-1.85578 z m 80.12219,-2.92857 c -0.008,-0.93004 -0.41006,-2.31427 -0.89252,-3.07608 -0.69835,-1.1027 -1.11714,-0.93675 -2.05408,0.81392 -0.90343,1.68809 -0.90208,2.53014 0.006,3.62409 1.41539,1.70544 2.96207,0.98915 2.94078,-1.36193 z m -124.48469,0.80905 c -0.33992,-0.55 -1.04148,-1 -1.55902,-1 -0.51754,0 -0.94098,0.45 -0.94098,1 0,0.55 0.70156,1 1.55902,1 0.85746,0 1.2809,-0.45 0.94098,-1 z m 14.5,-1.5 c 0,-0.825 -0.7301,-1.5 -1.62244,-1.5 -1.3288,0 -1.39713,0.27149 -0.37756,1.5 0.68469,0.825 1.41479,1.5 1.62244,1.5 0.20766,0 0.37756,-0.675 0.37756,-1.5 z m 34.5,-1.5 c -0.55059,-2.50682 -0.34848,-3 1.22942,-3 1.03857,0 2.76183,-0.66069 3.82945,-1.4682 1.64609,-1.24503 1.69162,-1.47303 0.29954,-1.5 -0.90288,-0.0175 -1.92395,-1.1568 -2.26905,-2.5318 -0.34511,-1.375 -1.09293,-2.5 -1.66184,-2.5 -1.55051,0 -7.92746,5.33127 -7.92749,6.62756 -2e-5,0.62015 -0.64828,1.66555 -1.44059,2.32311 -2.28643,1.89757 -0.72401,4.33224 2.38157,3.71113 1.45925,-0.29185 3.30699,-0.11704 4.10609,0.38847 2.11234,1.33627 2.17675,1.24538 1.4529,-2.05027 z m -37.5,-2 c 0,-0.55 -0.47656,-1 -1.05902,-1 -0.58246,0 -0.7809,0.45 -0.44098,1 0.33992,0.55 0.81648,1 1.05902,1 0.24254,0 0.44098,-0.45 0.44098,-1 z m 13,-0.5 c 0,-1.04762 -1.05556,-1.5 -3.5,-1.5 -4.14453,0 -4.69811,1.68566 -0.75,2.28375 1.5125,0.22912 3.0875,0.48401 3.5,0.56642 0.4125,0.0824 0.75,-0.52517 0.75,-1.35017 z m 47,-1.5 c 0,-0.55 -0.45,-1 -1,-1 -0.55,0 -1,0.45 -1,1 0,0.55 0.45,1 1,1 0.55,0 1,-0.45 1,-1 z m 3.97776,-10.35699 c 0.0122,-0.47134 -0.65276,-0.59797 -1.47776,-0.28138 -2.47731,0.95063 -4.62469,-0.39341 -3.96241,-2.48005 0.7489,-2.3596 -1.21905,-2.47983 -3.70885,-0.22659 -2.59426,2.34777 -2.28571,4.34501 0.67126,4.34501 1.4902,0 2.5,0.57222 2.5,1.41667 0,2.35704 2.3905,2.47742 4.22776,0.21289 0.95027,-1.17126 1.73777,-2.5152 1.75,-2.98655 z m 11.52224,-2.64301 c 0.33992,-0.55 0.14148,-1 -0.44098,-1 -0.58246,0 -1.05902,0.45 -1.05902,1 0,0.55 0.19844,1 0.44098,1 0.24254,0 0.7191,-0.45 1.05902,-1 z m -6.5,-2.5 c 0,-0.825 -0.42344,-1.5 -0.94098,-1.5 -1.26098,0 -2.1641,1.56159 -1.36517,2.36052 1.12619,1.12618 2.30615,0.68589 2.30615,-0.86052 z m 25.8,-2.7 c 0.93333,-0.93333 1.46667,-0.93333 2.4,0 2.00261,2.00261 3.54786,1.36204 4.70217,-1.94922 1.54766,-4.43961 1.45637,-4.64645 -1.93305,-4.37982 -3.19989,0.25172 -7.96912,3.96421 -7.96912,6.20335 0,1.64969 1.22119,1.7045 2.8,0.12569 z m -36.8,-4.85902 c 0,-1.13246 -0.45,-1.7809 -1,-1.44098 -0.55,0.33992 -1,1.26648 -1,2.05902 0,0.79254 0.45,1.44098 1,1.44098 0.55,0 1,-0.92656 1,-2.05902 z m 8.78179,1.05902 c 1.17629,0 1.31799,-0.30022 0.51887,-1.09934 -1.25917,-1.25917 -5.30066,-0.28803 -5.30066,1.27372 0,0.57178 0.7118,0.76645 1.58179,0.43261 0.86998,-0.33385 2.30998,-0.60699 3.2,-0.60699 z m 74.21821,-14.44098 c 0,-0.24254 -0.45,-0.7191 -1,-1.05902 -0.55,-0.33992 -1,-0.14148 -1,0.44098 0,0.58246 0.45,1.05902 1,1.05902 0.55,0 1,-0.19844 1,-0.44098 z m 4.5,-14.55902 c 0.33992,-0.55 -0.0835,-1 -0.94098,-1 -0.85746,0 -1.55902,0.45 -1.55902,1 0,0.55 0.42344,1 0.94098,1 0.51754,0 1.2191,-0.45 1.55902,-1 z m 70.46721,-85.669 c 2.48845,-4.21761 2.07497,-8.68156 -0.75294,-8.12882 -0.94285,0.18429 -1.74201,1.22669 -1.77591,2.31645 -0.0339,1.08975 -0.37141,2.76887 -0.75,3.73137 -1.32587,3.37073 -1.54568,4.55935 -0.95279,5.15223 1.19296,1.19297 2.10719,0.52944 4.23164,-3.07123 z m -4.30054,339.00233 c -1.12122,-1.12121 -0.7439,-2.33333 0.72634,-2.33333 0.76616,0 1.65203,0.675 1.96862,1.5 0.57696,1.50355 -1.41026,2.11804 -2.69496,0.83333 z M 292.95862,634.93934 c 0,-0.55 0.42344,-1 0.94098,-1 0.51754,0 1.2191,0.45 1.55902,1 0.33992,0.55 -0.0835,1 -0.94098,1 -0.85746,0 -1.55902,-0.45 -1.55902,-1 z m 11.22917,-1.1875 c 0.61807,-1.85422 2.77083,-2.16176 2.77083,-0.39583 0,0.87083 -0.7125,1.58333 -1.58333,1.58333 -0.87084,0 -1.40521,-0.53438 -1.1875,-1.1875 z m 28.38299,-0.63102 c -0.87413,-1.41437 1.88127,-3.3131 3.76109,-2.59174 1.73271,0.6649 2.24579,2.41026 0.70854,2.41026 -0.50502,0 -1.5845,0.25568 -2.39885,0.56817 -0.81435,0.3125 -1.7462,0.13849 -2.07078,-0.38669 z m 149.45821,-2.05 c -1.33341,-2.49149 -0.11897,-3.56243 1.54895,-1.36594 1.5789,2.07926 1.72743,3.23446 0.41586,3.23446 -0.53065,0 -1.41481,-0.84083 -1.96481,-1.86852 z m -185.99212,-2.5896 c -2.74333,-1.46819 -2.04198,-2.09653 3.42937,-3.07239 3.41961,-0.60991 3.77718,-0.51534 2.49238,0.65922 -0.825,0.75421 -1.96649,1.8885 -2.53665,2.52065 -0.7791,0.8638 -1.62014,0.8371 -3.3851,-0.10748 z m 12.5331,-0.3617 c -0.32502,-0.5259 0.75447,-1.15364 2.39885,-1.39499 1.64439,-0.24134 2.9898,-0.0667 2.9898,0.388 0,0.45475 -0.4132,0.82681 -0.91821,0.82681 -0.50502,0 -1.5845,0.25568 -2.39885,0.56817 -0.81435,0.3125 -1.74656,0.1379 -2.07159,-0.38799 z m 9.38865,-2.05774 c 0,-1.03265 0.66968,-2.43333 1.48817,-3.11262 1.20519,-1.00022 1.60583,-0.92843 2.10699,0.37756 0.34035,0.88694 0.3598,2.28762 0.0432,3.11262 -0.82406,2.1475 -3.63836,1.85546 -3.63836,-0.37756 z m 12,-2.62244 c 0,-0.92366 0.93789,-1.5 2.44098,-1.5 1.34254,0 2.7191,-0.45 3.05902,-1 0.33992,-0.55 1.04148,-1 1.55902,-1 0.51754,0 0.94098,0.45 0.94098,1 0,0.55 -0.6199,1 -1.37756,1 -0.75765,0 -1.93775,0.675 -2.62244,1.5 -0.68469,0.825 -1.86479,1.5 -2.62244,1.5 -0.75766,0 -1.37756,-0.675 -1.37756,-1.5 z m 148.47608,-2.57536 c -0.74935,-2.36099 -0.11357,-3.43666 1.45739,-2.46576 1.31159,0.81061 1.4216,4.54112 0.13392,4.54112 -0.51294,0 -1.22903,-0.93391 -1.59131,-2.07536 z m -26.37818,-56.48329 c -2.20782,-3.74197 -2.80191,-6.99449 -1.08361,-5.93252 1.70285,1.05242 5.02999,8.34577 4.07617,8.93526 -0.49207,0.30412 -1.83872,-1.04712 -2.99256,-3.00274 z m -3.0979,-80.44135 c 0,-0.55 0.70156,-1 1.55902,-1 0.85746,0 1.2809,0.45 0.94098,1 -0.33992,0.55 -1.04148,1 -1.55902,1 -0.51754,0 -0.94098,-0.45 -0.94098,-1 z m -0.92496,-25.40958 c -1.4239,-1.7157 -1.10908,-4.74689 0.55039,-5.29936 1.31118,-0.43652 2.58796,4.82878 1.45526,6.00132 -0.421,0.43581 -1.32354,0.11993 -2.00565,-0.70196 z m 6.09358,-2.88725 c -0.80805,-0.97364 -0.36252,-1.9705 1.78774,-4 1.57521,-1.48674 3.12943,-2.70317 3.45383,-2.70317 1.37953,0 0.4367,4.82859 -1.23893,6.34501 -2.20355,1.99418 -2.61436,2.03094 -4.00264,0.35816 z m -13.72247,-5.7903 c -1.04788,-1.69551 1.11856,-3.1858 3.5222,-2.42291 2.06881,0.65661 2.08511,0.75273 0.35067,2.06753 -2.22829,1.68915 -3.00453,1.76038 -3.87287,0.35538 z m -21.44615,-11.91287 c 0,-0.55 0.45,-1 1,-1 0.55,0 1,0.45 1,1 0,0.55 -0.45,1 -1,1 -0.55,0 -1,-0.45 -1,-1 z m 17.45888,-7.06653 c -0.36253,-0.58659 -0.41903,-1.30665 -0.12555,-1.60014 0.71632,-0.71631 2.66667,0.54583 2.66667,1.72569 0,1.27797 -1.72641,1.19267 -2.54112,-0.12555 z m 45.54112,-2.93347 c 0,-0.55 0.47656,-1 1.05902,-1 0.58246,0 0.7809,0.45 0.44098,1 -0.33992,0.55 -0.81648,1 -1.05902,1 -0.24254,0 -0.44098,-0.45 -0.44098,-1 z m -0.72232,-11.25 c -2.27114,-2.93517 -2.26972,-4.75038 0.004,-4.73469 3.74378,0.0258 5.09866,1.40607 3.78668,3.85752 -1.29715,2.42374 -2.39679,2.67822 -3.79038,0.87717 z m -10.1557,-10.10302 c -1.06205,-1.2797 -0.57769,-2.64698 0.9377,-2.64698 1.12133,0 1.95979,2.86993 1.00995,3.45696 -0.46366,0.28656 -1.3401,-0.0779 -1.94765,-0.80998 z m 8.87802,-8.64698 c 0,-0.55 0.47656,-1 1.05902,-1 0.58246,0 0.7809,0.45 0.44098,1 -0.33992,0.55 -0.81648,1 -1.05902,1 -0.24254,0 -0.44098,-0.45 -0.44098,-1 z m 5.19239,-1.71328 c -1.91873,-0.36662 -2.25577,-0.97562 -2,-3.61382 0.22353,-2.30568 0.78592,-3.13494 2.05761,-3.03401 0.9625,0.0764 1.75,-0.48611 1.75,-1.25 0,-2.31491 2.83589,-1.55278 3.20419,0.86111 0.18881,1.2375 0.89511,2.1375 1.56955,2 0.67444,-0.1375 1.22626,0.18875 1.22626,0.725 0,0.55 -1.30769,0.71346 -3,0.375 -2.34872,-0.46974 -3,-0.24722 -3,1.025 0,0.89375 0.45,1.625 1,1.625 0.55,0 1,0.45 1,1 0,0.55 -0.3375,0.93872 -0.75,0.86382 -0.4125,-0.0749 -1.78842,-0.3346 -3.05761,-0.5771 z m 55.40417,-2.13049 c -0.34605,-0.55992 -0.1419,-1.31919 0.45366,-1.68727 1.53748,-0.95021 2.52947,0.35135 1.24598,1.63484 -0.71818,0.71818 -1.27752,0.73543 -1.69964,0.0524 z m 2.65344,-4.09979 c -1.2375,-1.03236 -2.25,-2.13114 -2.25,-2.44173 0,-0.96338 6.45752,0.6366 7.23469,1.79254 2.08328,3.09861 -1.49062,3.56406 -4.98469,0.64919 z m -44.25,0.0254 c 0,-1.61628 1.18892,-4.08179 1.96832,-4.08179 0.41488,0 0.53928,1.125 0.27643,2.5 -0.44687,2.33765 -2.24475,3.60454 -2.24475,1.58179 z m 19.33794,-0.0804 c -2.43439,-0.98168 -3.69781,-3.9 -2.75363,-6.36049 0.86359,-2.25046 2.07333,-2.05808 2.72485,0.43333 0.29833,1.14082 1.47581,2.3183 2.61663,2.61663 1.17272,0.30668 2.07421,1.36097 2.07421,2.42579 0,2.02699 -1.24402,2.26308 -4.66206,0.88474 z m 29.16206,-4.00139 c 0.33992,-0.55 0.81648,-1 1.05902,-1 0.24254,0 0.44098,0.45 0.44098,1 0,0.55 -0.47656,1 -1.05902,1 -0.58246,0 -0.7809,-0.45 -0.44098,-1 z m -38,-3 c -0.7292,-1.17987 0.21667,-3 1.55902,-3 0.51754,0 0.94098,0.9 0.94098,2 0,2.10908 -1.45488,2.69104 -2.5,1 z m -4,-3 c -0.33992,-0.55 0.0835,-1 0.94098,-1 0.85746,0 1.55902,0.45 1.55902,1 0,0.55 -0.42344,1 -0.94098,1 -0.51754,0 -1.2191,-0.45 -1.55902,-1 z m 44.95956,-5.45472 c -1.07776,-0.81492 -3.95311,-1.49598 -6.38967,-1.51348 -3.9651,-0.0285 -4.88356,-0.51872 -8.75,-4.67064 -2.37594,-2.55136 -4.31989,-5.08925 -4.31989,-5.63975 0,-3.83671 10.41905,-4.98271 15.75,-1.73237 1.7875,1.08986 3.25,2.40365 3.25,2.91954 0,0.51588 1.06947,2.21 2.37659,3.76469 2.39664,2.85057 3.00745,7.36683 1.08297,8.00738 -0.57224,0.19047 -1.92224,-0.32045 -3,-1.13537 z m -40.45956,-13.04528 c 0,-1.808 0.53727,-2.5 1.94098,-2.5 2.55258,0 3.5351,1.72143 2.02267,3.54381 -1.89844,2.28747 -3.96365,1.74361 -3.96365,-1.04381 z m 10,-7.9349 c 0,-2.29292 1.86557,-6.5651 2.86684,-6.5651 0.50399,0 1.22251,1.21986 1.59671,2.7108 0.49959,1.99052 0.2119,3.05335 -1.08272,4 -2.29579,1.67872 -3.38083,1.63196 -3.38083,-0.1457 z m -25.98469,-43.3151 c 0.0199,-2.26894 1.68151,-4.88651 2.55041,-4.01761 0.93975,0.93974 -0.38681,5.76761 -1.58477,5.76761 -0.53952,0 -0.97406,-0.7875 -0.96564,-1.75 z"
       style="fill:#2c2c2c" />
  </g>
</svg>
