<?xml version="1.0" encoding="UTF-8" standalone="no"?>
<!-- Created with Inkscape (http://www.inkscape.org/) -->
<svg
   xmlns:dc="http://purl.org/dc/elements/1.1/"
   xmlns:cc="http://creativecommons.org/ns#"
   xmlns:rdf="http://www.w3.org/1999/02/22-rdf-syntax-ns#"
   xmlns:svg="http://www.w3.org/2000/svg"
   xmlns="http://www.w3.org/2000/svg"
   xmlns:sodipodi="http://sodipodi.sourceforge.net/DTD/sodipodi-0.dtd"
   xmlns:inkscape="http://www.inkscape.org/namespaces/inkscape"
   id="svg2"
   sodipodi:version="0.32"
   inkscape:version="0.46"
   width="396.25"
   height="33.375"
   xml:space="preserve"
   sodipodi:docname="MicroCNet-v11.svg"
   version="1.0"
   inkscape:output_extension="org.inkscape.output.svg.inkscape"><metadata
     id="metadata7"><rdf:RDF><cc:Work
         rdf:about=""><dc:format>image/svg+xml</dc:format><dc:type
           rdf:resource="http://purl.org/dc/dcmitype/StillImage" /></cc:Work></rdf:RDF></metadata><defs
     id="defs5"><inkscape:perspective
       sodipodi:type="inkscape:persp3d"
       inkscape:vp_x="0 : 526.18109 : 1"
       inkscape:vp_y="0 : 1000 : 0"
       inkscape:vp_z="744.09448 : 526.18109 : 1"
       inkscape:persp3d-origin="372.04724 : 350.78739 : 1"
       id="perspective9" /><clipPath
       clipPathUnits="userSpaceOnUse"
       id="clipPath17"><path
         d="M 0,-0.3 L 841.9,-0.3 L 841.9,595 L 0,595 L 0,-0.3 z"
         clip-rule="evenodd"
         id="path19" /></clipPath></defs><sodipodi:namedview
     inkscape:window-height="796"
     inkscape:window-width="1430"
     inkscape:pageshadow="2"
     inkscape:pageopacity="0.0"
     guidetolerance="10.0"
     gridtolerance="10.0"
     objecttolerance="10.0"
     borderopacity="1.0"
     bordercolor="#666666"
     pagecolor="#ffffff"
     id="base"
     showgrid="false"
     inkscape:zoom="1.1973972"
     inkscape:cx="274.6939"
     inkscape:cy="63.388472"
     inkscape:window-x="0"
     inkscape:window-y="32"
     inkscape:current-layer="g11" /><g
     id="g11"
     inkscape:groupmode="layer"
     inkscape:label="MicroCNet-v11"
     transform="matrix(1.25,0,0,-1.25,-28.8125,692.4375)"><g
       id="g13"><g
         id="g15"
         clip-path="url(#clipPath17)"><path
           d="M 23.5,540.7 L 63,540.7 L 63,553.6 L 23.5,553.6 L 23.5,540.7 z"
           style="fill:#ffff99;fill-opacity:1;fill-rule:evenodd;stroke:none"
           id="path21" /><path
           d="M 63,540.7 L 142,540.7 L 142,553.6 L 63,553.6 L 63,540.7 z"
           style="fill:#99ccff;fill-opacity:1;fill-rule:evenodd;stroke:none"
           id="path23" /><path
           d="M 142,540.7 L 181.5,540.7 L 181.5,553.6 L 142,553.6 L 142,540.7 z"
           style="fill:#ffcc99;fill-opacity:1;fill-rule:evenodd;stroke:none"
           id="path25" /><path
           d="M 181.5,540.7 L 260.5,540.7 L 260.5,553.6 L 181.5,553.6 L 181.5,540.7 z"
           style="fill:#ccffcc;fill-opacity:1;fill-rule:evenodd;stroke:none"
           id="path27" /><path
           d="M 260.4,540.7 L 339.4,540.7 L 339.4,553.6 L 260.4,553.6 L 260.4,540.7 z"
           style="fill:#ffff99;fill-opacity:1;fill-rule:evenodd;stroke:none"
           id="path29" /></g></g><path
       d="M 23.1,553.9 L 340,553.9 L 340,553 L 23.1,553 L 23.1,553.9 z"
       style="fill:#000000;fill-opacity:1;fill-rule:evenodd;stroke:#000000;stroke-width:0.1;stroke-linecap:butt;stroke-linejoin:miter;stroke-miterlimit:10;stroke-dasharray:none;stroke-opacity:1"
       id="path31" /><path
       d="M 24.1,541.1 L 339,541.1 L 339,540.1 L 24.1,540.1 L 24.1,541.1 z"
       style="fill:#000000;fill-opacity:1;fill-rule:evenodd;stroke:#000000;stroke-width:0.1;stroke-linecap:butt;stroke-linejoin:miter;stroke-miterlimit:10;stroke-dasharray:none;stroke-opacity:1"
       id="path33" /><path
       d="M 23.1,528.2 L 340,528.2 L 340,527.3 L 23.1,527.3 L 23.1,528.2 z"
       style="fill:#000000;fill-opacity:1;fill-rule:evenodd;stroke:#000000;stroke-width:0.1;stroke-linecap:butt;stroke-linejoin:miter;stroke-miterlimit:10;stroke-dasharray:none;stroke-opacity:1"
       id="path35" /><path
       d="M 23.1,553.9 L 23.1,527.3 L 24.1,527.3 L 24.1,553.9 L 23.1,553.9 z"
       style="fill:#000000;fill-opacity:1;fill-rule:evenodd;stroke:#000000;stroke-width:0.1;stroke-linecap:butt;stroke-linejoin:miter;stroke-miterlimit:10;stroke-dasharray:none;stroke-opacity:1"
       id="path37" /><path
       d="M 62.6,552.9 L 62.6,528.3 L 63.6,528.3 L 63.6,552.9 L 62.6,552.9 z"
       style="fill:#000000;fill-opacity:1;fill-rule:evenodd;stroke:#000000;stroke-width:0.1;stroke-linecap:butt;stroke-linejoin:miter;stroke-miterlimit:10;stroke-dasharray:none;stroke-opacity:1"
       id="path39" /><path
       d="M 102.1,552.9 L 102.1,528.3 L 103.1,528.3 L 103.1,552.9 L 102.1,552.9 z"
       style="fill:#000000;fill-opacity:1;fill-rule:evenodd;stroke:#000000;stroke-width:0.1;stroke-linecap:butt;stroke-linejoin:miter;stroke-miterlimit:10;stroke-dasharray:none;stroke-opacity:1"
       id="path41" /><path
       d="M 141.6,552.9 L 141.6,528.3 L 142.6,528.3 L 142.6,552.9 L 141.6,552.9 z"
       style="fill:#000000;fill-opacity:1;fill-rule:evenodd;stroke:#000000;stroke-width:0.1;stroke-linecap:butt;stroke-linejoin:miter;stroke-miterlimit:10;stroke-dasharray:none;stroke-opacity:1"
       id="path43" /><path
       d="M 181.1,552.9 L 181.1,528.3 L 182,528.3 L 182,552.9 L 181.1,552.9 z"
       style="fill:#000000;fill-opacity:1;fill-rule:evenodd;stroke:#000000;stroke-width:0.1;stroke-linecap:butt;stroke-linejoin:miter;stroke-miterlimit:10;stroke-dasharray:none;stroke-opacity:1"
       id="path45" /><path
       d="M 220.6,552.9 L 220.6,528.3 L 221.5,528.3 L 221.5,552.9 L 220.6,552.9 z"
       style="fill:#000000;fill-opacity:1;fill-rule:evenodd;stroke:#000000;stroke-width:0.1;stroke-linecap:butt;stroke-linejoin:miter;stroke-miterlimit:10;stroke-dasharray:none;stroke-opacity:1"
       id="path47" /><path
       d="M 260.1,552.9 L 260.1,528.3 L 261,528.3 L 261,552.9 L 260.1,552.9 z"
       style="fill:#000000;fill-opacity:1;fill-rule:evenodd;stroke:#000000;stroke-width:0.1;stroke-linecap:butt;stroke-linejoin:miter;stroke-miterlimit:10;stroke-dasharray:none;stroke-opacity:1"
       id="path49" /><path
       d="M 299.5,552.9 L 299.5,528.3 L 300.5,528.3 L 300.5,552.9 L 299.5,552.9 z"
       style="fill:#000000;fill-opacity:1;fill-rule:evenodd;stroke:#000000;stroke-width:0.1;stroke-linecap:butt;stroke-linejoin:miter;stroke-miterlimit:10;stroke-dasharray:none;stroke-opacity:1"
       id="path51" /><path
       d="M 339,553.9 L 339,527.3 L 340,527.3 L 340,553.9 L 339,553.9 z"
       style="fill:#000000;fill-opacity:1;fill-rule:evenodd;stroke:#000000;stroke-width:0.1;stroke-linecap:butt;stroke-linejoin:miter;stroke-miterlimit:10;stroke-dasharray:none;stroke-opacity:1"
       id="path53" /><g
       id="g55"><text
         transform="matrix(1,0,0,-1,35,544)"
         id="text57"><tspan
           style="font-size:10px;font-variant:normal;font-weight:bold;writing-mode:lr-tb;fill:#000000;fill-opacity:1;fill-rule:nonzero;stroke:none;font-family:Arial;-inkscape-font-specification:Arial-BoldMT"
           x="0 7.8000002 11.1"
           y="0"
           sodipodi:role="line"
           id="tspan59">Qty</tspan></text>
</g><g
       id="g61"><text
         transform="matrix(1,0,0,-1,74.8,544)"
         id="text63"><tspan
           style="font-size:10px;font-variant:normal;font-weight:bold;writing-mode:lr-tb;fill:#000000;fill-opacity:1;fill-rule:nonzero;stroke:none;font-family:Arial;-inkscape-font-specification:Arial-BoldMT"
           x="0 7.1999998 12.8"
           y="0"
           sodipodi:role="line"
           id="tspan65">Dst</tspan></text>
</g><g
       id="g67"><text
         transform="matrix(1,0,0,-1,114.2,544)"
         id="text69"><tspan
           style="font-size:10px;font-variant:normal;font-weight:bold;writing-mode:lr-tb;fill:#000000;fill-opacity:1;fill-rule:nonzero;stroke:none;font-family:Arial;-inkscape-font-specification:Arial-BoldMT"
           x="0 6.6999998 10.6"
           y="0"
           sodipodi:role="line"
           id="tspan71">Src</tspan></text>
</g><g
       id="g73"><text
         transform="matrix(1,0,0,-1,152.9,544)"
         id="text75"><tspan
           style="font-size:10px;font-variant:normal;font-weight:bold;writing-mode:lr-tb;fill:#000000;fill-opacity:1;fill-rule:nonzero;stroke:none;font-family:Arial;-inkscape-font-specification:Arial-BoldMT"
           x="0 6.6999998 12.3"
           y="0"
           sodipodi:role="line"
           id="tspan77">Sec</tspan></text>
</g><g
       id="g79"><text
         transform="matrix(1,0,0,-1,190.2,544)"
         id="text81"><tspan
           style="font-size:10px;font-variant:normal;font-weight:bold;writing-mode:lr-tb;fill:#000000;fill-opacity:1;fill-rule:nonzero;stroke:none;font-family:Arial;-inkscape-font-specification:Arial-BoldMT"
           x="0 7.1999998 13.3"
           y="0"
           sodipodi:role="line"
           id="tspan83">Com</tspan></text>
</g><g
       id="g85"><text
         transform="matrix(1,0,0,-1,229.7,544)"
         id="text87"><tspan
           style="font-size:10px;font-variant:normal;font-weight:bold;writing-mode:lr-tb;fill:#000000;fill-opacity:1;fill-rule:nonzero;stroke:none;font-family:Arial;-inkscape-font-specification:Arial-BoldMT"
           x="0 7.1999998 12.8 16.1"
           y="0"
           sodipodi:role="line"
           id="tspan89">Dato</tspan></text>
</g><g
       id="g91"><text
         transform="matrix(1,0,0,-1,265.9,544)"
         id="text93"><tspan
           style="font-size:10px;font-variant:normal;font-weight:bold;writing-mode:lr-tb;fill:#000000;fill-opacity:1;fill-rule:nonzero;stroke:none;font-family:Arial;-inkscape-font-specification:Arial-BoldMT"
           x="0 7.1999998 14.4 21.6"
           y="0"
           sodipodi:role="line"
           id="tspan95">BCCH</tspan></text>
</g><g
       id="g97"><text
         transform="matrix(1,0,0,-1,305.9,544)"
         id="text99"><tspan
           style="font-size:10px;font-variant:normal;font-weight:bold;writing-mode:lr-tb;fill:#000000;fill-opacity:1;fill-rule:nonzero;stroke:none;font-family:Arial;-inkscape-font-specification:Arial-BoldMT"
           x="0 7.1999998 14.4 21.6"
           y="0"
           sodipodi:role="line"
           id="tspan101">BCCL</tspan></text>
</g><g
       id="g103"><text
         transform="matrix(1,0,0,-1,40.6,531.2)"
         id="text105"><tspan
           style="font-size:10px;font-variant:normal;font-weight:bold;writing-mode:lr-tb;fill:#000000;fill-opacity:1;fill-rule:nonzero;stroke:none;font-family:Arial;-inkscape-font-specification:Arial-BoldMT"
           x="0"
           y="0"
           id="tspan107">1</tspan></text>
</g><g
       id="g109"><text
         transform="matrix(1,0,0,-1,80.1,531.2)"
         id="text111"><tspan
           style="font-size:10px;font-variant:normal;font-weight:bold;writing-mode:lr-tb;fill:#000000;fill-opacity:1;fill-rule:nonzero;stroke:none;font-family:Arial;-inkscape-font-specification:Arial-BoldMT"
           x="0"
           y="0"
           id="tspan113">1</tspan></text>
</g><g
       id="g115"><text
         transform="matrix(1,0,0,-1,119.5,531.2)"
         id="text117"><tspan
           style="font-size:10px;font-variant:normal;font-weight:bold;writing-mode:lr-tb;fill:#000000;fill-opacity:1;fill-rule:nonzero;stroke:none;font-family:Arial;-inkscape-font-specification:Arial-BoldMT"
           x="0"
           y="0"
           id="tspan119">1</tspan></text>
</g><g
       id="g121"><text
         transform="matrix(1,0,0,-1,159,531.2)"
         id="text123"><tspan
           style="font-size:10px;font-variant:normal;font-weight:bold;writing-mode:lr-tb;fill:#000000;fill-opacity:1;fill-rule:nonzero;stroke:none;font-family:Arial;-inkscape-font-specification:Arial-BoldMT"
           x="0"
           y="0"
           id="tspan125">1</tspan></text>
</g><g
       id="g127"><text
         transform="matrix(1,0,0,-1,198.5,531.2)"
         id="text129"><tspan
           style="font-size:10px;font-variant:normal;font-weight:bold;writing-mode:lr-tb;fill:#000000;fill-opacity:1;fill-rule:nonzero;stroke:none;font-family:Arial;-inkscape-font-specification:Arial-BoldMT"
           x="0"
           y="0"
           id="tspan131">1</tspan></text>
</g><g
       id="g133"><text
         transform="matrix(1,0,0,-1,227.9,531.2)"
         id="text135"><tspan
           style="font-size:10px;font-variant:normal;font-weight:bold;writing-mode:lr-tb;fill:#000000;fill-opacity:1;fill-rule:nonzero;stroke:none;font-family:Arial;-inkscape-font-specification:Arial-BoldMT"
           x="0 5.5999999 8.8999996 14.5 20.1"
           y="0"
           sodipodi:role="line"
           id="tspan137">0-245</tspan></text>
</g><g
       id="g139"><text
         transform="matrix(1,0,0,-1,277.5,531.2)"
         id="text141"><tspan
           style="font-size:10px;font-variant:normal;font-weight:bold;writing-mode:lr-tb;fill:#000000;fill-opacity:1;fill-rule:nonzero;stroke:none;font-family:Arial;-inkscape-font-specification:Arial-BoldMT"
           x="0"
           y="0"
           id="tspan143">1</tspan></text>
</g><g
       id="g145"><text
         transform="matrix(1,0,0,-1,317,531.2)"
         id="text147"><tspan
           style="font-size:10px;font-variant:normal;font-weight:bold;writing-mode:lr-tb;fill:#000000;fill-opacity:1;fill-rule:nonzero;stroke:none;font-family:Arial;-inkscape-font-specification:Arial-BoldMT"
           x="0"
           y="0"
           id="tspan149">1</tspan></text>
</g></g></svg>