<?xml version="1.0" encoding="UTF-8" standalone="no"?>
<!-- Created with Inkscape (http://www.inkscape.org/) -->

<svg
   xmlns:dc="http://purl.org/dc/elements/1.1/"
   xmlns:cc="http://creativecommons.org/ns#"
   xmlns:rdf="http://www.w3.org/1999/02/22-rdf-syntax-ns#"
   xmlns:svg="http://www.w3.org/2000/svg"
   xmlns="http://www.w3.org/2000/svg"
   xmlns:sodipodi="http://sodipodi.sourceforge.net/DTD/sodipodi-0.dtd"
   xmlns:inkscape="http://www.inkscape.org/namespaces/inkscape"
   width="82.272232"
   height="41.257778"
   id="svg2"
   version="1.1"
   inkscape:version="0.48.4 r9939"
   sodipodi:docname="smve-logo.svg">
  <defs
     id="defs4" />
  <sodipodi:namedview
     id="base"
     pagecolor="#ffffff"
     bordercolor="#666666"
     borderopacity="1.0"
     inkscape:pageopacity="1"
     inkscape:pageshadow="2"
     inkscape:zoom="2.8"
     inkscape:cx="34.448235"
     inkscape:cy="-26.744594"
     inkscape:document-units="px"
     inkscape:current-layer="layer1"
     showgrid="false"
     showguides="true"
     inkscape:guide-bbox="true"
     fit-margin-top="2"
     fit-margin-left="2"
     fit-margin-right="2"
     fit-margin-bottom="2"
     inkscape:window-width="1366"
     inkscape:window-height="717"
     inkscape:window-x="-4"
     inkscape:window-y="-4"
     inkscape:window-maximized="1">
    <sodipodi:guide
       orientation="0,1"
       position="37.546967,6.5256374"
       id="guide3793" />
  </sodipodi:namedview>
  <metadata
     id="metadata7">
    <rdf:RDF>
      <cc:Work
         rdf:about="">
        <dc:format>image/svg+xml</dc:format>
        <dc:type
           rdf:resource="http://purl.org/dc/dcmitype/StillImage" />
        <dc:title />
      </cc:Work>
    </rdf:RDF>
  </metadata>
  <g
     inkscape:label="Capa 1"
     inkscape:groupmode="layer"
     id="layer1"
     transform="translate(-144.95303,-106.55861)">
    <path
       style="color:#000000;fill:#abc837;fill-opacity:1;fill-rule:nonzero;stroke:none;stroke-width:2.5;marker:none;visibility:visible;display:inline;overflow:visible;enable-background:accumulate"
       d="m 186.76728,108.55861 c -6.09847,0 -11.52367,2.92769 -14.91907,7.45954 l 0,22.29881 c 3.39477,4.53934 8.81468,7.49943 14.91907,7.49943 6.01728,0 11.35818,-2.87236 14.75951,-7.29997 l 0,-22.65784 c -3.40133,-4.42761 -8.74223,-7.29997 -14.75951,-7.29997 z"
       id="path3795"
       inkscape:connector-curvature="0" />
    <text
       xml:space="preserve"
       style="font-size:40px;font-style:normal;font-variant:normal;font-weight:normal;font-stretch:normal;line-height:125%;letter-spacing:0px;word-spacing:0px;fill:#000000;fill-opacity:1;stroke:none;font-family:Nunito;-inkscape-font-specification:Nunito"
       x="144.82413"
       y="140.67653"
       id="text2985"
       sodipodi:linespacing="125%"><tspan
         sodipodi:role="line"
         id="tspan2987"
         x="144.82413"
         y="140.67653">S</tspan></text>
    <text
       xml:space="preserve"
       style="font-size:40px;font-style:normal;font-variant:normal;font-weight:normal;font-stretch:normal;line-height:125%;letter-spacing:0px;word-spacing:0px;fill:#000000;fill-opacity:1;stroke:none;font-family:Nunito;-inkscape-font-specification:Nunito"
       x="167.14285"
       y="141.64789"
       id="text2989"
       sodipodi:linespacing="125%"><tspan
         sodipodi:role="line"
         id="tspan2991"
         x="167.14285"
         y="141.64789">M</tspan></text>
    <text
       xml:space="preserve"
       style="font-size:40px;font-style:normal;font-variant:normal;font-weight:normal;font-stretch:normal;line-height:125%;letter-spacing:0px;word-spacing:0px;fill:#000000;fill-opacity:1;stroke:none;font-family:Nunito;-inkscape-font-specification:Nunito"
       x="202.6862"
       y="141.65053"
       id="text2997"
       sodipodi:linespacing="125%"><tspan
         sodipodi:role="line"
         id="tspan2999"
         x="202.6862"
         y="141.65053">E</tspan></text>
    <path
       id="path3787"
       d="m 186.75,112.59375 c -4.7775,0 -9.02757,2.29353 -11.6875,5.84375 l 0,17.46875 c 2.65944,3.55609 6.90536,5.875 11.6875,5.875 4.7139,0 8.89792,-2.25019 11.5625,-5.71875 l 0,-17.75 c -2.66458,-3.46856 -6.8486,-5.71875 -11.5625,-5.71875 z"
       style="opacity:0.6300813;color:#000000;fill:#445500;fill-opacity:1;fill-rule:nonzero;stroke:none;stroke-width:2.5;marker:none;visibility:visible;display:inline;overflow:visible;enable-background:accumulate"
       inkscape:connector-curvature="0" />
    <path
       style="font-size:40px;font-style:normal;font-variant:normal;font-weight:normal;font-stretch:normal;line-height:125%;letter-spacing:0px;word-spacing:0px;fill:#decd87;fill-opacity:1;stroke:none;font-family:Nunito;-inkscape-font-specification:Nunito"
       d="m 177.96875,115.5625 c -1.09501,0.82676 -2.08385,1.77734 -2.90625,2.875 l 0,0.28125 8.65625,19.75 c 0.27342,0.76824 0.65363,1.32292 1.1875,1.6875 0.54686,0.35157 1.11977,0.53125 1.71875,0.53125 0.31248,0 0.638,-0.0339 0.9375,-0.125 0.31248,-0.10417 0.60154,-0.25521 0.875,-0.4375 0.27341,-0.19531 0.5104,-0.44531 0.71875,-0.71875 0.22133,-0.27344 0.40101,-0.57291 0.53125,-0.9375 l 8.625,-19.8125 0,-0.34375 c -0.7923,-1.03136 -1.74628,-1.92996 -2.78125,-2.71875 -0.28817,0.47304 -0.58687,1.06718 -0.875,1.78125 l -7.90625,17.90625 -0.125,0 -7.75,-17.875 c -0.29949,-0.74217 -0.60679,-1.34893 -0.90625,-1.84375 z"
       id="path3006"
       inkscape:connector-curvature="0" />
    <path
       sodipodi:type="arc"
       id="path3797"
       style="fill:#ffffff;fill-opacity:1;stroke:#000000;stroke-opacity:1"
       sodipodi:cx="208.09142"
       sodipodi:cy="120.24392"
       sodipodi:rx="3"
       sodipodi:ry="3"
       d="m 211.09142,120.24392 c 0,1.65685 -1.34315,3 -3,3 -1.65686,0 -3,-1.34315 -3,-3 0,-1.65685 1.34314,-3 3,-3 1.65685,0 3,1.34315 3,3 z"
       transform="translate(0.88388348,-3.7880721)" />
    <path
       transform="translate(1.1161161,18.211928)"
       d="m 211.09142,120.24392 c 0,1.65685 -1.34315,3 -3,3 -1.65686,0 -3,-1.34315 -3,-3 0,-1.65685 1.34314,-3 3,-3 1.65685,0 3,1.34315 3,3 z"
       sodipodi:ry="3"
       sodipodi:rx="3"
       sodipodi:cy="120.24392"
       sodipodi:cx="208.09142"
       style="fill:#ffffff;fill-opacity:1;stroke:#000000;stroke-opacity:1"
       id="path3799"
       sodipodi:type="arc" />
    <path
       sodipodi:type="arc"
       id="path3801"
       style="fill:#ffffff;fill-opacity:1;stroke:#000000;stroke-opacity:1"
       sodipodi:cx="208.09142"
       sodipodi:cy="120.24392"
       sodipodi:rx="3"
       sodipodi:ry="3"
       d="m 211.09142,120.24392 c 0,1.65685 -1.34315,3 -3,3 -1.65686,0 -3,-1.34315 -3,-3 0,-1.65685 1.34314,-3 3,-3 1.65685,0 3,1.34315 3,3 z"
       transform="translate(-49.82724,6.6229971)" />
  </g>
</svg>
